<svg xmlns="http://www.w3.org/2000/svg" width="1136" height="1136" viewBox="0 0 1136 1136" version="1.1"><path d="M 746.500 294.399 C 722.852 299.827, 703.582 315.290, 693.840 336.654 C 689.778 345.562, 688.218 351.594, 687.414 361.506 C 684.712 394.808, 704.141 425.891, 734.850 437.392 C 746.535 441.769, 750.140 442.415, 762.500 442.349 C 772.999 442.293, 775.628 441.915, 783.515 439.324 C 816.385 428.526, 836.688 400.770, 836.415 367 C 836.220 342.744, 825.385 321.687, 805.569 307.052 C 798.922 302.143, 795.397 300.376, 785.076 296.781 C 777.851 294.265, 774.610 293.734, 764.500 293.408 C 756.562 293.153, 750.469 293.488, 746.500 294.399 M 152.287 320.740 C 155.469 320.939, 160.419 320.937, 163.287 320.736 C 166.154 320.535, 163.550 320.372, 157.500 320.374 C 151.450 320.376, 149.104 320.541, 152.287 320.740 M 560.349 1041 C 560.349 1045.675, 560.522 1047.588, 560.732 1045.250 C 560.943 1042.912, 560.943 1039.088, 560.732 1036.750 C 560.522 1034.412, 560.349 1036.325, 560.349 1041 M 571.343 1067.500 C 571.346 1071.900, 571.522 1073.576, 571.733 1071.224 C 571.945 1068.872, 571.942 1065.272, 571.727 1063.224 C 571.512 1061.176, 571.339 1063.100, 571.343 1067.500" stroke="none" fill="#1c97d1" fill-rule="evenodd"/><path d="M 551.723 72.461 C 551.402 81.514, 551.549 90.406, 552.050 92.220 C 555.486 104.662, 575.297 109.359, 585.339 100.114 C 590.643 95.232, 591.210 92.963, 591.767 74.419 L 592.283 57.224 587.392 56.781 C 584.701 56.538, 582.234 56.470, 581.909 56.630 C 581.583 56.791, 581.028 64.477, 580.674 73.711 C 580.045 90.126, 579.974 90.550, 577.460 92.750 C 574.069 95.717, 568.936 95.709, 565.474 92.731 L 562.837 90.463 562.949 73.231 L 563.062 56 557.684 56 L 552.307 56 551.723 72.461 M 508.500 58.398 C 500.005 59.334, 498.513 59.763, 498.583 61.250 C 498.629 62.212, 498.742 64.333, 498.833 65.962 L 499 68.925 505.418 68.325 L 511.836 67.726 512.457 72.113 C 513.565 79.941, 514.549 92.455, 514.197 94.249 C 513.825 96.143, 509.904 97.561, 507.543 96.655 C 506.739 96.346, 505.719 94.695, 505.276 92.986 C 504.833 91.277, 504.140 89.905, 503.735 89.939 C 503.331 89.973, 500.975 90, 498.500 90 C 494.189 90, 494 90.123, 494 92.935 C 494 99.609, 498.412 105.103, 505.334 107.046 C 512.113 108.949, 520.622 105.565, 523.617 99.775 C 525.563 96.011, 525.612 92.536, 524.001 72.750 C 522.777 57.719, 522.622 57.007, 520.609 57.148 C 519.449 57.230, 514 57.792, 508.500 58.398 M 623 60.335 C 623 60.519, 621.464 69.181, 619.587 79.585 C 617.710 89.988, 615.866 100.589, 615.490 103.143 L 614.805 107.786 619.967 108.495 C 622.805 108.886, 625.293 109.040, 625.495 108.839 C 625.696 108.637, 626.503 104.755, 627.287 100.213 C 628.072 95.670, 628.958 91.708, 629.257 91.410 C 630.215 90.452, 646.191 93.333, 646.657 94.548 C 646.904 95.192, 646.467 99.419, 645.686 103.942 C 644.107 113.086, 643.948 112.806, 650.938 113.231 L 655.375 113.500 657.171 103 C 662.566 71.449, 663.063 67.657, 661.892 66.933 C 660.650 66.165, 652.872 64.739, 652.530 65.217 C 652.419 65.373, 651.553 69.539, 650.606 74.475 C 649.659 79.411, 648.722 83.612, 648.523 83.810 C 647.966 84.367, 633.404 81.868, 631.943 80.965 C 630.891 80.315, 630.884 78.797, 631.901 72.833 C 632.589 68.800, 633.355 64.769, 633.603 63.876 C 633.943 62.653, 632.949 61.973, 629.585 61.126 C 625.032 59.979, 623 59.735, 623 60.335 M 458.500 64.896 C 454.813 65.705, 454.806 65.378, 458.894 84.234 C 462.301 99.948, 462.224 101.329, 457.770 104.449 C 454.799 106.530, 449.728 106.410, 446.992 104.195 C 444.772 102.397, 444.567 101.701, 439.437 78.500 C 438.464 74.100, 437.542 70.337, 437.388 70.137 C 437.234 69.938, 434.794 70.330, 431.965 71.008 L 426.823 72.242 427.473 75.871 C 429.700 88.301, 434.451 105.970, 436.319 108.765 C 441.884 117.095, 457.981 118.340, 466.671 111.112 C 472.301 106.431, 474.500 98.001, 472.075 90.399 C 471.567 88.805, 469.957 82.213, 468.499 75.750 C 465.599 62.900, 465.933 63.263, 458.500 64.896 M 399 80.905 C 398.175 81.369, 390.300 84.356, 381.500 87.543 C 372.700 90.730, 365.139 93.645, 364.699 94.020 C 364.057 94.566, 366.629 103, 367.436 103 C 367.557 103, 370.455 101.862, 373.877 100.472 C 377.299 99.081, 380.458 98.165, 380.896 98.436 C 381.335 98.707, 384.529 106.829, 387.995 116.485 C 394.925 135.795, 393.859 134.628, 401.612 131.389 L 404.898 130.016 403.049 124.758 C 402.033 121.866, 399.091 113.937, 396.512 107.139 C 393.932 100.340, 392.200 94.448, 392.661 94.045 C 393.123 93.642, 396.087 92.289, 399.250 91.040 C 402.413 89.790, 405 88.356, 405 87.852 C 405 86.126, 402.103 80, 401.301 80.030 C 400.860 80.047, 399.825 80.441, 399 80.905 M 721.268 89.194 C 715.081 104.487, 707.792 123.791, 707.327 126.116 C 706.848 128.509, 707.249 128.930, 711.581 130.584 C 714.294 131.620, 716.522 131.997, 716.731 131.455 C 721.859 118.137, 723.784 114.521, 725.580 114.834 C 726.636 115.017, 727.802 115.467, 728.172 115.834 C 728.541 116.200, 729.441 121.388, 730.172 127.363 L 731.500 138.226 736.820 140.209 C 739.747 141.300, 742.343 141.990, 742.590 141.744 C 743.014 141.320, 740.638 122.437, 739.469 116.939 C 738.985 114.664, 740.037 113.494, 748.906 106.439 C 754.396 102.073, 758.913 98.194, 758.944 97.820 C 758.975 97.446, 756.648 96.263, 753.774 95.190 L 748.548 93.241 740.524 100.108 C 732.911 106.623, 730.532 107.612, 728.015 105.307 C 727.748 105.063, 728.761 101.389, 730.265 97.142 C 733.619 87.673, 733.627 87.189, 730.456 85.983 C 723.775 83.443, 723.565 83.517, 721.268 89.194 M 780.701 116.192 C 767.278 140.653, 761.910 151.305, 762.648 152.012 C 763.650 152.972, 787.559 166, 788.319 166 C 788.604 166, 789.849 164.362, 791.087 162.360 C 793.292 158.792, 793.298 158.691, 791.418 157.312 C 790.363 156.538, 786.688 154.474, 783.250 152.726 C 779.813 150.978, 777 148.952, 777 148.224 C 777 147.145, 779.539 141.340, 780.507 140.203 C 780.647 140.040, 783.716 141.531, 787.328 143.516 L 793.895 147.126 796.037 142.927 C 798.442 138.214, 798.663 138.569, 790.750 134.443 C 788.138 133.081, 786 131.502, 786 130.933 C 786 129.145, 789.006 124, 790.051 124 C 790.600 124, 794.177 125.575, 798 127.500 C 801.823 129.425, 805.314 131, 805.759 131 C 806.700 131, 810 125.680, 810 124.163 C 810 123.254, 788.329 110.982, 785.331 110.192 C 784.688 110.023, 782.605 112.723, 780.701 116.192 M 307.216 121.586 L 302.932 124.154 305.145 127.827 C 306.362 129.847, 309.948 135.662, 313.113 140.750 C 316.279 145.838, 318.658 150, 318.400 150 C 318.142 150, 314.459 148.034, 310.215 145.631 C 305.972 143.227, 299.145 139.575, 295.044 137.514 C 287.727 133.837, 287.531 133.798, 284.544 135.433 C 277.283 139.406, 277.320 138.783, 283.737 149.135 C 286.930 154.286, 292.438 163.338, 295.978 169.250 C 299.518 175.162, 302.780 180, 303.227 180 C 304.335 180, 312 175.115, 312 174.409 C 312 173.597, 299.941 153.840, 298.166 151.744 C 295.500 148.596, 297.583 148.895, 303.600 152.524 C 306.845 154.481, 313.593 158.172, 318.596 160.726 L 327.692 165.370 332.420 162.600 C 335.918 160.550, 336.983 159.399, 336.514 158.177 C 335.991 156.812, 330.702 148.009, 314.330 121.250 C 312.615 118.445, 312.444 118.453, 307.216 121.586 M 833.812 140.742 C 831.411 143.530, 809.041 175.727, 808.491 177.185 C 807.941 178.644, 819.422 187.094, 826.905 190.737 C 832.570 193.495, 836.532 193.583, 840.701 191.040 C 845.243 188.272, 847.368 183.700, 846.627 178.295 C 846.134 174.700, 846.336 173.828, 847.764 173.373 C 851.928 172.044, 854.197 170.418, 856.034 167.445 C 861.080 159.280, 856.466 152.452, 837.913 140.632 C 835.494 139.091, 835.227 139.098, 833.812 140.742 M 836.380 156.568 L 833.573 160.248 836.537 162.619 C 839.902 165.311, 843.193 165.677, 844.954 163.555 C 846.838 161.285, 845.784 157.958, 842.344 155.314 L 839.187 152.888 836.380 156.568 M 239.285 168.210 C 237.203 169.976, 235.382 171.482, 235.237 171.557 C 235.093 171.631, 237.023 177.274, 239.527 184.096 C 242.031 190.918, 245.908 201.563, 248.144 207.750 C 250.379 213.938, 252.499 218.993, 252.854 218.985 C 253.209 218.977, 255.256 217.484, 257.403 215.668 L 261.305 212.367 259.463 207.542 L 257.621 202.718 263.060 197.891 C 266.052 195.236, 268.974 193.049, 269.553 193.032 C 270.132 193.014, 272.382 194.302, 274.553 195.893 L 278.500 198.787 282.847 195.032 L 287.194 191.278 269.847 180.421 C 260.306 174.450, 250.975 168.538, 249.110 167.282 C 244.687 164.304, 243.790 164.389, 239.285 168.210 M 825.554 171.706 C 824.149 173.773, 823.006 175.922, 823.012 176.482 C 823.030 177.903, 829.578 182, 831.831 182 C 834.245 182, 837 178.921, 837 176.222 C 837 174.380, 833.641 171.063, 829.304 168.622 C 828.585 168.217, 827.087 169.450, 825.554 171.706 M 247.202 179.250 C 247.989 180.488, 249.668 184.088, 250.933 187.250 C 252.198 190.412, 253.743 192.988, 254.366 192.973 C 254.990 192.958, 257.040 191.669, 258.922 190.109 L 262.343 187.271 259.422 185.420 C 257.815 184.402, 254.523 182.091, 252.106 180.285 C 246.984 176.456, 245.181 176.075, 247.202 179.250 M 878.859 183.250 C 875.923 186.688, 869.129 194.511, 863.761 200.635 C 858.392 206.759, 854.038 212.159, 854.085 212.635 C 854.131 213.111, 855.881 214.969, 857.972 216.765 L 861.775 220.029 877.519 201.947 L 893.262 183.865 889.935 180.433 C 888.105 178.545, 886.065 177, 885.403 177 C 884.740 177, 881.796 179.813, 878.859 183.250 M 202.560 201.066 C 200.305 203.561, 199.098 205.764, 199.413 206.807 C 199.695 207.738, 201.081 212.196, 202.494 216.713 C 204.659 223.632, 204.863 225.246, 203.791 226.963 C 203.091 228.083, 202.138 229, 201.673 229 C 201.208 229, 197.923 226.212, 194.374 222.804 L 187.922 216.608 183.955 220.575 L 179.988 224.541 196.974 240.771 C 206.316 249.697, 214.330 257, 214.784 257 C 215.237 257, 217.140 255.419, 219.013 253.486 L 222.419 249.972 215.487 242.987 C 208.589 236.036, 208.564 235.991, 210.527 234.034 C 212.489 232.078, 212.555 232.083, 222.500 235.016 C 228 236.638, 232.950 237.931, 233.500 237.888 C 234.050 237.846, 236.193 235.887, 238.262 233.534 L 242.024 229.256 230.262 226.090 C 223.793 224.349, 217.662 222.586, 216.639 222.173 C 214.908 221.474, 210.462 209.933, 208.524 201.111 C 208.151 199.412, 207.480 197.796, 207.032 197.520 C 206.584 197.243, 204.572 198.839, 202.560 201.066 M 898.303 221.870 C 886.645 227.200, 876.774 231.893, 876.368 232.299 C 875.962 232.705, 877.366 234.814, 879.487 236.987 L 883.345 240.937 888.142 238.326 L 892.939 235.716 897.719 241.001 C 900.349 243.908, 902.652 246.677, 902.838 247.156 C 903.023 247.634, 902.033 249.975, 900.636 252.357 L 898.098 256.689 902.030 260.530 C 904.194 262.642, 906.151 264.174, 906.379 263.935 C 906.855 263.438, 924.603 230.672, 927.867 224.266 L 930.024 220.032 926.396 216.016 C 924.400 213.807, 922.032 212.040, 921.134 212.090 C 920.235 212.139, 909.961 216.540, 898.303 221.870 M 909.750 227.062 C 905.487 229.241, 902.018 231.356, 902.041 231.762 C 902.100 232.845, 907.893 239.451, 908.333 238.937 C 910.018 236.969, 918.359 222.949, 917.785 223.050 C 917.628 223.077, 914.013 224.883, 909.750 227.062 M 949.914 254.980 C 945.661 256.229, 942.279 258.913, 940.965 262.084 C 939.774 264.961, 939.831 266.680, 941.617 281.620 C 942.290 287.250, 941.409 288.570, 937.613 287.618 C 935.021 286.967, 932.369 282.252, 931.501 276.750 C 930.910 273.001, 930.908 273, 925.955 273 L 921 273 921.044 276.750 C 921.139 284.870, 926.283 293.573, 933.018 297.009 C 937.779 299.438, 941.098 299.522, 945.717 297.330 C 952.685 294.023, 954.453 287.397, 951.455 275.825 C 949.806 269.464, 950.136 266.546, 952.611 265.596 C 956.156 264.235, 961 270.549, 961 276.532 C 961 279.130, 961.181 279.232, 964.750 278.642 C 966.813 278.301, 969.063 278.017, 969.750 278.011 C 970.512 278.004, 971 276.621, 971 274.468 C 971 263.296, 959.088 252.287, 949.914 254.980 M 150.188 261.935 L 146.877 266.818 161.188 287.395 C 169.060 298.713, 175.725 307.961, 176 307.947 C 176.275 307.933, 177.911 306.001, 179.636 303.654 L 182.773 299.386 179.886 295.515 C 178.299 293.386, 177 291.233, 177 290.731 C 177 289.957, 184.952 278, 185.467 278 C 185.564 278, 187.830 278.745, 190.503 279.656 L 195.362 281.311 198.666 277.406 C 200.483 275.258, 201.977 273.199, 201.985 272.832 C 201.993 272.464, 196.713 270.498, 190.250 268.463 C 183.787 266.427, 173.079 263.015, 166.452 260.881 C 159.826 258.746, 154.201 257.012, 153.952 257.026 C 153.704 257.040, 152.010 259.249, 150.188 261.935 M 159.632 269.152 C 160.109 269.920, 162.744 273.395, 165.487 276.873 L 170.473 283.196 173.237 279.886 C 174.756 278.065, 176 276.098, 176 275.514 C 176 274.930, 172.512 273.115, 168.250 271.481 C 163.988 269.846, 160.109 268.339, 159.632 268.132 C 159.140 267.918, 159.140 268.361, 159.632 269.152 M 121.993 308.250 C 118.994 310.293, 108.038 327.747, 108.027 330.500 C 108.025 331.050, 117.298 336.611, 128.635 342.859 C 144.830 351.784, 149.443 353.927, 150.160 352.859 C 151.993 350.131, 154 346.074, 154 345.099 C 154 344.548, 151.075 342.462, 147.500 340.463 C 143.925 338.464, 141 336.517, 141 336.136 C 141 335.756, 141.701 334.445, 142.557 333.223 C 143.973 331.201, 144.945 330.999, 153.307 330.992 L 162.500 330.983 165.141 325.992 L 167.783 321 156.391 321 C 145.098 321, 145 320.980, 145 318.648 C 145 317.354, 143.988 314.812, 142.750 312.999 C 138.071 306.145, 128.349 303.920, 121.993 308.250 M 970 312.724 C 957.075 315.188, 946.367 317.329, 946.204 317.481 C 946.042 317.634, 946.936 319.873, 948.191 322.457 L 950.474 327.156 954.865 326.498 C 957.280 326.135, 959.761 325.650, 960.378 325.418 C 960.995 325.187, 963.224 328.166, 965.331 332.040 L 969.162 339.082 965.439 342.492 C 961.981 345.659, 961.800 346.101, 962.893 348.701 C 963.540 350.240, 964.873 352.552, 965.855 353.838 L 967.641 356.176 983.611 338.338 C 992.394 328.527, 999.912 319.960, 1000.318 319.300 C 1001.172 317.912, 995.994 307.976, 994.500 308.136 C 993.950 308.196, 982.925 310.260, 970 312.724 M 125.299 319.250 C 124.172 320.488, 122.734 322.500, 122.104 323.723 C 121.046 325.776, 121.340 326.138, 125.946 328.473 C 128.689 329.863, 131.347 331, 131.853 331 C 132.840 331, 136 324.946, 136 323.053 C 136 321.225, 131.268 317, 129.220 317 C 128.191 317, 126.426 318.012, 125.299 319.250 M 979.831 320.376 C 975.613 321.544, 971.849 322.814, 971.467 323.197 C 970.615 324.052, 974.904 331.211, 976.019 330.797 C 977.009 330.428, 987.657 320.365, 988.501 318.998 C 989.262 317.767, 989.230 317.772, 979.831 320.376 M 94.304 359.750 C 93.956 360.712, 91.531 366.814, 88.916 373.308 C 84.194 385.035, 84.176 385.123, 86.331 386.043 C 87.524 386.552, 97.484 390.559, 108.465 394.945 C 123.035 400.766, 128.641 402.594, 129.209 401.711 C 130.458 399.770, 140.186 374.851, 139.827 374.515 C 139.186 373.917, 131.689 370.979, 131.462 371.237 C 131.334 371.382, 129.800 375.100, 128.053 379.500 C 126.305 383.900, 124.533 387.848, 124.114 388.273 C 123.401 388.998, 117.277 386.959, 115.850 385.522 C 115.493 385.162, 116.280 382.112, 117.600 378.744 C 118.920 375.376, 120 372.324, 120 371.962 C 120 371.600, 118.167 370.583, 115.927 369.704 L 111.855 368.104 110.427 371.552 C 109.642 373.448, 108.358 376.552, 107.573 378.448 L 106.145 381.896 102.073 380.296 C 97.554 378.522, 97.278 377.620, 99.594 372.218 C 100.470 370.173, 101.810 366.785, 102.571 364.689 L 103.954 360.879 100.509 359.439 C 96.050 357.576, 95.073 357.625, 94.304 359.750 M 989.750 367.289 C 980.538 367.818, 973 368.587, 973 368.998 C 973 369.409, 973.934 371.856, 975.075 374.436 L 977.149 379.125 982.361 378.474 L 987.572 377.823 990.286 384.431 C 991.779 388.066, 992.988 391.593, 992.972 392.270 C 992.957 392.946, 991.371 394.625, 989.446 396 C 985.674 398.696, 985.483 400.367, 988.204 406.901 L 989.500 410.014 1007.500 394.443 C 1017.400 385.879, 1026.073 378.311, 1026.774 377.626 C 1027.804 376.619, 1027.635 375.387, 1025.890 371.191 L 1023.733 366 1015.117 366.164 C 1010.378 366.254, 998.962 366.761, 989.750 367.289 M 1004.500 376.217 C 1000.650 376.746, 997.392 377.284, 997.261 377.412 C 996.725 377.934, 1000.366 386, 1001.137 386 C 1001.595 386, 1005.173 383.525, 1009.088 380.500 C 1016.896 374.468, 1016.939 374.508, 1004.500 376.217 M 1018.165 420.991 C 1005.881 424.206, 995.656 427.011, 995.442 427.224 C 995.108 427.559, 996.291 433.007, 997.495 436.677 C 997.768 437.510, 1001.630 436.872, 1010.691 434.499 C 1017.736 432.654, 1024.287 430.839, 1025.250 430.465 C 1026.213 430.092, 1027 429.988, 1027 430.234 C 1027 430.480, 1021.436 436.183, 1014.635 442.906 L 1002.270 455.130 1003.240 459.815 C 1003.774 462.392, 1004.550 464.864, 1004.964 465.308 C 1005.378 465.753, 1011.068 464.765, 1017.608 463.112 C 1045.151 456.152, 1050.533 454.709, 1051.138 454.120 C 1051.489 453.779, 1051.129 451.332, 1050.338 448.682 C 1048.667 443.084, 1049.960 443.126, 1031.766 448.078 C 1025.863 449.685, 1020.653 451, 1020.188 451 C 1019.724 451, 1024.941 445.451, 1031.782 438.670 L 1044.219 426.340 1042.951 420.670 C 1042.253 417.551, 1041.416 415.033, 1041.091 415.072 C 1040.766 415.112, 1030.449 417.775, 1018.165 420.991 M 74.683 419.250 C 70.295 425.146, 69.195 427.440, 68.061 433.057 C 65.743 444.534, 70.651 454.850, 81.018 460.291 C 85.926 462.867, 87.286 463.130, 94 462.803 C 100.075 462.507, 102.306 461.920, 105.740 459.713 C 113.601 454.660, 118.439 443.844, 116.346 436.002 C 115.387 432.410, 115.464 432, 117.094 432 C 118.375 432, 119.101 430.976, 119.562 428.520 C 119.921 426.606, 120.279 424.726, 120.358 424.342 C 120.513 423.581, 119.157 423.153, 105.051 419.506 C 99.855 418.163, 95.448 417.218, 95.260 417.407 C 94.155 418.512, 90.965 432.360, 91.661 433.033 C 92.122 433.479, 94.130 434.144, 96.122 434.509 C 99.506 435.131, 99.814 434.972, 100.820 432.087 C 102.789 426.439, 107 429.540, 107 436.637 C 107 450.729, 91.490 456.690, 81.310 446.510 C 78.516 443.716, 78 442.478, 78 438.568 C 78 433.236, 79.881 428.119, 82.980 425.020 L 85.135 422.865 82.516 419.433 C 79.258 415.161, 77.752 415.126, 74.683 419.250 M 972.092 776.760 C 968.568 783.217, 964.152 791.289, 962.279 794.698 L 958.874 800.895 963.034 803.017 C 965.322 804.185, 967.320 804.996, 967.474 804.820 C 967.627 804.644, 969.202 801.913, 970.972 798.750 C 972.742 795.587, 974.649 793, 975.208 793 C 975.768 793, 980.113 795.189, 984.863 797.865 C 993.924 802.969, 1007.593 810, 1008.455 810 C 1009.096 810, 1013 802.394, 1013 801.145 C 1013 800.630, 1010.638 798.984, 1007.750 797.486 C 1002.560 794.794, 980.833 782.913, 980.143 782.389 C 979.946 782.241, 981.184 779.675, 982.893 776.688 C 984.602 773.701, 986 770.786, 986 770.210 C 986 769.327, 980.048 764.979, 978.882 765.010 C 978.672 765.016, 975.616 770.304, 972.092 776.760 M 123.500 780.665 C 113.050 782.518, 102.349 784.316, 99.721 784.660 C 97.092 785.004, 94.695 785.685, 94.393 786.173 C 94.092 786.661, 95.043 789.105, 96.508 791.604 C 98.332 794.716, 99.645 795.967, 100.673 795.572 C 101.499 795.255, 103.823 794.737, 105.837 794.420 C 109.453 793.852, 109.541 793.920, 112.750 799.799 C 114.537 803.074, 116 806.353, 116 807.085 C 116 807.817, 114.464 810.010, 112.586 811.958 L 109.173 815.500 111.918 820.239 L 114.663 824.978 121.084 818.239 C 124.616 814.533, 132.424 806.174, 138.435 799.664 L 149.364 787.828 146.932 783.342 C 145.594 780.875, 144.050 778.505, 143.500 778.076 C 142.950 777.647, 133.950 778.813, 123.500 780.665 M 125.750 789.777 C 122.037 790.615, 119.002 791.795, 119.004 792.400 C 119.010 794.165, 122.978 800.178, 123.904 799.823 C 124.368 799.646, 127.530 796.913, 130.931 793.750 C 137.879 787.288, 137.629 787.097, 125.750 789.777 M 147.274 831.218 L 128.048 845.240 131.193 849.620 C 132.924 852.029, 134.491 854, 134.678 854 C 135.266 854, 153.398 840.832, 155.746 838.699 C 159.052 835.696, 159.371 837.086, 156.644 842.612 C 155.317 845.300, 152.139 852.347, 149.582 858.272 L 144.932 869.044 147.661 872.772 C 149.162 874.822, 150.698 876.873, 151.074 877.329 C 151.903 878.333, 190 851.174, 190 849.580 C 190 848.961, 188.630 846.794, 186.956 844.763 L 183.912 841.070 173.353 848.785 C 167.545 853.028, 161.889 857.151, 160.784 857.947 C 158.956 859.263, 159.001 858.948, 161.287 854.447 C 164.081 848.947, 172.769 829.175, 173.215 827.303 C 173.502 826.100, 167.934 816.978, 167 817.120 C 166.725 817.162, 157.848 823.506, 147.274 831.218 M 940.184 827.541 L 936.983 832.082 946.773 845.291 C 952.158 852.556, 958.985 861.779, 961.946 865.786 C 964.906 869.793, 967.641 872.718, 968.024 872.286 C 968.407 871.854, 969.887 869.739, 971.314 867.586 L 973.908 863.671 970.954 859.942 C 969.329 857.891, 968 855.743, 968 855.168 C 968 854.594, 969.688 851.609, 971.750 848.534 C 975.776 842.531, 975.502 842.618, 984.137 844.588 C 986.415 845.108, 987.188 844.588, 989.821 840.761 L 992.868 836.332 976.684 831.603 C 954.975 825.260, 946.806 823.052, 944.943 823.024 C 944.086 823.011, 941.945 825.044, 940.184 827.541 M 950 833.581 C 950 834.735, 960.456 846.999, 961.429 846.988 C 962.337 846.977, 967 840.819, 967 839.631 C 967 839.412, 966.212 839.011, 965.250 838.740 C 964.288 838.469, 960.462 837.087, 956.750 835.668 C 953.038 834.250, 950 833.311, 950 833.581 M 913.500 865.167 C 910.573 866.786, 907.523 869.684, 900.861 877.177 L 894.924 883.854 912.016 899.177 C 921.417 907.605, 929.673 914.629, 930.363 914.787 C 932.290 915.227, 945.713 899.319, 947.613 894.343 C 949.083 890.495, 949.127 889.414, 947.957 885.871 C 945.847 879.477, 938.578 875.069, 933.393 877.041 C 931.357 877.815, 931 877.648, 931 875.926 C 931 872.980, 928.437 868.489, 925.385 866.088 C 922.471 863.796, 916.776 863.355, 913.500 865.167 M 913.077 877.589 C 909.181 880.867, 909.211 882.227, 913.250 885.443 L 916.500 888.030 919.250 884.803 C 922.464 881.031, 922.700 878.943, 920.171 876.655 C 917.704 874.422, 916.680 874.557, 913.077 877.589 M 209 877.491 C 206.706 878.810, 177.050 892.356, 169.094 895.718 L 165.687 897.158 169.819 901.290 L 173.952 905.422 178.631 903.149 L 183.311 900.875 188.655 906.153 C 191.595 909.056, 194 911.793, 194 912.236 C 194 912.678, 192.850 914.861, 191.445 917.087 L 188.890 921.135 192.195 924.976 C 194.013 927.089, 195.950 928.715, 196.500 928.588 C 197.645 928.325, 219.958 887.149, 219.983 885.253 C 220.001 883.943, 213.227 875.981, 212.134 876.027 C 211.785 876.041, 210.375 876.700, 209 877.491 M 927.535 889.104 C 925.591 890.811, 924 892.747, 924 893.407 C 924 894.068, 925.604 896.158, 927.564 898.054 L 931.129 901.500 934.038 898 C 937.378 893.980, 937.810 890.043, 935.171 887.655 C 932.628 885.353, 931.580 885.552, 927.535 889.104 M 199.767 892.267 L 192.034 896.377 194.392 899.438 C 197.945 904.052, 199.399 903.773, 202.921 897.803 C 204.642 894.886, 206.769 891.487, 207.647 890.250 C 209.803 887.212, 208.793 887.471, 199.767 892.267 M 868.621 909.250 C 862.879 914.337, 858.253 918.824, 858.340 919.221 C 858.428 919.617, 865.433 927.812, 873.906 937.433 C 883.500 948.325, 889.751 954.656, 890.474 954.212 C 893.570 952.314, 912 935.396, 912 934.453 C 912 933.860, 910.645 932.076, 908.989 930.490 L 905.978 927.605 901.739 931.575 C 899.408 933.759, 896.259 936.629, 894.743 937.954 L 891.987 940.361 888.993 937.494 C 887.347 935.916, 886 934.070, 886 933.390 C 886 932.711, 888.344 930.105, 891.208 927.599 L 896.416 923.044 893.521 920.022 C 891.929 918.360, 890.198 917, 889.675 917 C 889.152 917, 886.771 918.800, 884.384 921 C 881.997 923.200, 879.669 925, 879.209 925 C 878.750 925, 877.052 923.618, 875.437 921.929 L 872.500 918.858 879.500 912.519 L 886.500 906.180 883.563 903.090 C 881.948 901.390, 880.274 900, 879.844 900 C 879.414 900, 874.364 904.163, 868.621 909.250 M 230.595 926.471 C 222.568 936.080, 216 944.358, 216 944.867 C 216 945.376, 217.659 947.249, 219.686 949.030 L 223.373 952.266 225.936 949.367 C 227.346 947.772, 230.170 944.450, 232.212 941.984 C 235.350 938.193, 236.200 937.671, 237.712 938.607 C 240.372 940.254, 240.404 942.239, 237.940 952.758 L 235.697 962.331 240.098 966.135 C 242.519 968.228, 244.741 969.954, 245.036 969.970 C 245.330 969.987, 246.392 965.837, 247.396 960.750 C 251.470 940.090, 250.418 942.391, 256.818 940.133 C 265.519 937.063, 274.446 933.685, 274.977 933.261 C 275.670 932.707, 267.718 926.082, 266.306 926.038 C 265.649 926.017, 261.151 927.597, 256.310 929.548 C 249.250 932.395, 247.062 932.894, 245.254 932.070 C 244.014 931.505, 243 930.609, 243 930.078 C 243 929.548, 245.557 926.100, 248.681 922.417 L 254.363 915.720 250.696 912.360 C 248.679 910.512, 246.616 909, 246.110 909 C 245.604 909, 238.622 916.862, 230.595 926.471 M 834.250 937.566 C 831.913 938.967, 830 940.356, 830 940.653 C 830 940.950, 832.250 944.387, 835 948.290 C 837.750 952.194, 840 955.909, 840 956.547 C 840 957.498, 826.940 967, 825.633 967 C 825.418 967, 823.050 963.631, 820.371 959.513 C 817.692 955.395, 814.825 952.032, 814 952.040 C 813.175 952.048, 810.925 953.369, 809 954.976 C 806.300 957.230, 805.728 958.244, 806.500 959.416 C 809.052 963.291, 831.408 995.596, 832.050 996.338 C 832.860 997.273, 841 992.256, 841 990.822 C 841 990.320, 838.757 986.585, 836.015 982.522 L 831.029 975.134 837.720 970.457 C 841.401 967.884, 844.917 965.585, 845.535 965.348 C 846.153 965.111, 848.873 968.290, 851.580 972.414 C 854.286 976.537, 856.868 979.931, 857.317 979.955 C 857.766 979.980, 859.791 978.781, 861.817 977.290 C 863.843 975.800, 865.678 974.459, 865.897 974.311 C 866.316 974.025, 862.013 967.519, 849.488 949.500 C 845.283 943.450, 841.319 937.712, 840.680 936.750 C 839.214 934.541, 839.320 934.528, 834.250 937.566 M 307.357 974.250 C 303.041 981.538, 298.363 989.525, 296.961 992 C 295.559 994.475, 293.616 997.702, 292.643 999.171 L 290.874 1001.842 295.407 1004.498 C 297.900 1005.960, 300.360 1006.896, 300.873 1006.579 C 301.559 1006.154, 316.676 980.874, 324.655 966.806 C 325.012 966.176, 317.086 961, 315.764 961 C 315.456 961, 311.673 966.962, 307.357 974.250 M 342.816 984.750 C 341.134 988.462, 336.887 997.796, 333.379 1005.490 C 329.870 1013.185, 327 1019.986, 327 1020.604 C 327 1022.081, 335.956 1025.485, 336.893 1024.365 C 337.666 1023.440, 346.439 1003.678, 347.377 1000.750 C 348.472 997.330, 350 999.072, 350.008 1003.750 C 350.012 1006.362, 350.687 1013.883, 351.508 1020.462 C 352.329 1027.041, 353 1032.546, 353 1032.695 C 353 1032.844, 355.266 1034.115, 358.036 1035.518 L 363.072 1038.070 365.982 1031.785 C 375.970 1010.215, 382.813 994.506, 382.466 993.946 C 381.966 993.136, 372.969 989.658, 372.633 990.144 C 372.315 990.606, 362.503 1012.882, 361.465 1015.500 C 360.949 1016.802, 359.968 1011.343, 358.656 999.862 L 356.640 982.224 352.293 980.112 C 349.903 978.950, 347.480 978, 346.911 978 C 346.341 978, 344.498 981.038, 342.816 984.750 M 744.250 989.259 C 739.100 991.846, 739.183 990.684, 742.010 1020.462 C 743.105 1031.991, 744 1041.529, 744 1041.657 C 744 1041.785, 746.269 1040.946, 749.043 1039.794 L 754.085 1037.698 753.793 1032.162 L 753.500 1026.626 760.339 1023.590 L 767.178 1020.554 770.623 1024.426 C 774.040 1028.266, 774.100 1028.287, 777.927 1027.024 C 784.014 1025.015, 784.491 1024.538, 782.809 1022.138 C 782.008 1020.994, 778.535 1017.079, 775.091 1013.438 C 771.647 1009.797, 764.775 1002.359, 759.819 996.909 C 754.863 991.459, 750.289 987.028, 749.654 987.062 C 749.019 987.096, 746.587 988.085, 744.250 989.259 M 749.382 1001.947 C 749.738 1003.843, 750.314 1007.820, 750.662 1010.785 C 751.011 1013.750, 751.863 1016.394, 752.555 1016.660 C 753.248 1016.925, 755.457 1016.300, 757.464 1015.270 L 761.114 1013.398 755.981 1006.949 C 748.920 998.079, 748.613 997.846, 749.382 1001.947 M 403.751 1005.250 C 403.486 1006.487, 401.590 1012.900, 399.539 1019.500 C 393.323 1039.499, 390.866 1048.200, 391.310 1048.643 C 392.487 1049.821, 413.036 1054.999, 416.498 1054.990 C 423.051 1054.974, 430.493 1050.869, 434.002 1045.335 C 442.716 1031.596, 439.726 1016.523, 427 1010.031 C 423.591 1008.293, 407.199 1003, 405.222 1003 C 404.678 1003, 404.016 1004.013, 403.751 1005.250 M 701.439 1004.824 C 698.722 1005.663, 696.332 1006.477, 696.126 1006.632 C 695.772 1006.900, 709.908 1051.069, 710.610 1051.888 C 711.122 1052.485, 719.985 1049.833, 720.555 1048.912 C 720.989 1048.210, 717.485 1036.809, 708.565 1009.899 L 706.377 1003.299 701.439 1004.824 M 662.326 1015.128 C 652.962 1016.793, 647 1022.395, 647 1029.530 C 647 1038.387, 650.790 1041.931, 663.009 1044.502 C 667.047 1045.351, 670.947 1046.541, 671.675 1047.146 C 673.664 1048.796, 673.271 1051.785, 670.898 1053.054 C 668.726 1054.217, 660.790 1053.935, 657.800 1052.590 C 656.471 1051.991, 655.762 1052.633, 654.550 1055.534 C 652.377 1060.735, 652.565 1061.575, 656.250 1063.121 C 664.653 1066.645, 677.920 1063.354, 682.095 1056.710 C 684.666 1052.617, 684.304 1044.118, 681.419 1040.870 C 678.871 1038.002, 672.658 1035.330, 666.500 1034.455 C 660.209 1033.561, 658 1032.426, 658 1030.087 C 658 1026.244, 664.596 1023.966, 670.134 1025.897 C 672.592 1026.754, 673.544 1026.737, 674.107 1025.827 C 675.365 1023.791, 676.184 1017.783, 675.320 1016.927 C 673.772 1015.393, 666.497 1014.386, 662.326 1015.128 M 412.613 1015.818 C 411.968 1016.861, 407.819 1030.288, 405.973 1037.305 C 404.438 1043.140, 404.998 1043.857, 411.710 1044.652 C 415.570 1045.109, 417.482 1044.829, 419.789 1043.466 C 426.346 1039.592, 429.532 1027.793, 425.629 1021.836 C 423.263 1018.227, 413.822 1013.861, 412.613 1015.818 M 477.147 1022.171 C 467.029 1023.937, 459.760 1031.260, 457.832 1041.630 C 454.917 1057.304, 466.412 1070.980, 482.500 1070.980 C 493.858 1070.980, 501.810 1065.269, 506.074 1054.048 C 508.521 1047.609, 508.498 1044.406, 505.957 1037.615 C 501.751 1026.372, 489.795 1019.963, 477.147 1022.171 M 606.500 1025.536 C 601 1026.237, 596.191 1026.853, 595.813 1026.905 C 595.435 1026.957, 595.320 1028.463, 595.558 1030.250 C 595.796 1032.037, 596.914 1042.275, 598.042 1053 C 599.171 1063.725, 600.246 1072.962, 600.430 1073.527 C 600.777 1074.588, 629.390 1071.943, 630.594 1070.739 C 630.927 1070.407, 630.888 1068.297, 630.509 1066.052 L 629.819 1061.968 621.659 1062.610 C 609.320 1063.581, 610 1063.817, 610 1058.561 L 610 1054.123 614.750 1053.507 C 624.345 1052.263, 624.145 1052.390, 623.806 1047.717 L 623.500 1043.500 615.750 1043.859 L 608 1044.218 608 1039.718 C 608 1034.586, 607.940 1034.619, 619.250 1033.459 C 626.487 1032.717, 626.955 1032.166, 625.370 1026.250 C 624.659 1023.598, 622.379 1023.512, 606.500 1025.536 M 531.484 1028.250 C 531.234 1028.938, 530.911 1039.758, 530.765 1052.295 C 530.504 1074.764, 530.530 1075.097, 532.612 1075.618 C 533.773 1075.909, 536.248 1076.002, 538.112 1075.824 L 541.500 1075.500 542 1060 L 542.500 1044.500 545.196 1050 C 546.678 1053.025, 550.536 1060, 553.769 1065.500 L 559.647 1075.500 565.168 1075.795 L 570.688 1076.090 571.344 1063.888 C 571.705 1057.177, 572 1046.357, 572 1039.843 L 572 1028 566.500 1028 L 561 1028 560.825 1038.750 C 560.729 1044.662, 560.759 1051.188, 560.892 1053.250 C 561.026 1055.313, 560.767 1056.996, 560.317 1056.992 C 559.868 1056.987, 558.110 1054.400, 556.412 1051.242 C 554.713 1048.084, 550.963 1041.338, 548.077 1036.250 L 542.831 1027 537.384 1027 C 533.935 1027, 531.771 1027.459, 531.484 1028.250 M 477.274 1033.080 C 471.796 1035.809, 469 1040.343, 469 1046.500 C 469 1057.409, 478.904 1064.204, 487.971 1059.515 C 496.973 1054.860, 498.528 1040.500, 490.669 1034.598 C 485.918 1031.031, 482.227 1030.613, 477.274 1033.080" stroke="none" fill="#000000" fill-rule="evenodd"/><path d="M 550.793 179.550 C 534.837 183.419, 520.038 197.574, 514.933 213.850 C 512.459 221.737, 512.037 233.952, 513.961 242 C 520 267.265, 545.729 284.924, 571.111 281.225 C 609.143 275.682, 628.666 233.205, 607.990 200.984 C 601.674 191.142, 589.720 182.508, 578.356 179.582 C 570.947 177.675, 558.588 177.660, 550.793 179.550 M 482 198.991 C 369.826 218.331, 275.565 283.720, 217.084 382.762 C 191.583 425.951, 174.506 477.371, 168.350 529.500 C 165.877 550.447, 165.864 593.797, 168.324 614.388 C 176.329 681.392, 199.537 741.438, 237.631 793.711 C 253.994 816.165, 256.325 818.350, 277.981 831.541 C 289.126 838.329, 309.976 849.358, 310.560 848.773 C 310.812 848.522, 308.426 846.057, 305.259 843.296 C 296.038 835.258, 278.406 817.349, 269.551 807.027 C 222.438 752.106, 193.267 684.816, 184.789 611.500 C 183.119 597.059, 183.122 547.902, 184.793 533.500 C 199.124 410.039, 273.430 303.907, 384.500 248.255 C 415.624 232.660, 461.697 217.937, 487 215.500 L 493.500 214.874 485.500 217.808 C 384.174 254.968, 304.346 331.583, 263.610 430.772 C 228.392 516.522, 226.056 612.537, 257.048 700.500 C 276.616 756.040, 312.704 810.976, 355.530 850.420 C 369.276 863.080, 382.088 873.595, 384.710 874.367 C 387.291 875.128, 408.524 878.752, 415 879.537 C 421.504 880.325, 421.600 880.445, 408.500 871.510 C 376.296 849.546, 342.018 815.994, 319.296 784.194 C 284.477 735.463, 262.289 678.230, 254.910 618.114 C 248.341 564.596, 254.025 510.126, 271.503 459.100 C 290.042 404.976, 318.918 358.894, 359.935 317.975 C 396.934 281.064, 438.623 253.898, 486 235.828 C 490.184 234.232, 487.252 236.437, 475.448 243.766 C 429.173 272.495, 387.108 315.275, 358.208 363 C 329.630 410.193, 312.735 460.427, 306.917 515.500 C 305.418 529.688, 305.418 573.312, 306.917 587.500 C 312.936 644.479, 331.668 698.784, 361.667 746.221 C 393.445 796.472, 439.858 840.433, 491.650 869.336 C 498.543 873.183, 502.913 875, 505.269 875 C 508.640 875, 524.730 872.481, 528.250 871.402 C 530.148 870.820, 530.668 869, 528.936 869 C 527.154 869, 502.346 856.247, 491.603 849.808 C 440.327 819.078, 396.935 774.977, 368.168 724.356 C 317.599 635.373, 308.301 531.764, 342.201 435 C 362.115 378.156, 400.068 323.953, 447.500 284.615 C 459.134 274.967, 490.324 253, 492.390 253 C 492.835 253, 489.442 256.014, 484.850 259.698 C 474.177 268.260, 452.038 289.884, 442.052 301.500 C 402.135 347.935, 375.279 405.735, 365.551 466.144 C 359.584 503.202, 359.588 535.741, 365.565 573 C 383.891 687.237, 461.165 784.288, 569.063 828.581 C 583.567 834.534, 596.701 839, 599.710 839 C 602.281 839, 618.079 831.410, 619.208 829.632 C 620.274 827.954, 619.220 827.392, 610.500 824.990 C 532.695 803.555, 465.823 752.744, 422.969 682.500 C 417.419 673.403, 406.155 650.871, 401.595 639.747 C 379.801 586.577, 372.857 525.850, 382.013 468.500 C 393.562 396.157, 430.212 329.715, 485.255 281.333 C 496.533 271.420, 500.596 268.462, 496.356 273.250 C 461.595 312.512, 440.028 351.226, 426.585 398.500 C 413.815 443.406, 411.966 496.731, 421.609 542 C 437.939 618.656, 480.652 683.850, 544.400 729.417 C 559.368 740.117, 583.678 754.027, 597 759.515 C 606.620 763.477, 617.507 767.754, 617.660 767.630 C 617.748 767.559, 617.956 763.527, 618.122 758.670 L 618.423 749.840 609.462 746.073 C 567.265 728.331, 529.776 700.423, 499.402 664.141 C 443.426 597.276, 420.948 510.169, 437.603 424.646 C 445.522 383.982, 461.924 346.324, 486.836 311.608 C 492.751 303.365, 510.620 282, 511.598 282 C 511.909 282, 511.280 283.462, 510.200 285.250 C 451.591 382.268, 454.244 501.604, 517.090 595.128 C 531.832 617.066, 555.224 642.450, 575.702 658.731 C 585.648 666.638, 603.698 678.973, 613.250 684.390 L 618 687.084 618 679.624 C 618 675.521, 618.254 671.501, 618.565 670.691 C 618.964 669.651, 615.376 666.723, 606.315 660.697 C 588.656 648.952, 578.610 640.732, 563.985 626.057 C 522.877 584.811, 497.522 534.943, 487.944 476.500 C 485.223 459.898, 484.233 426.271, 485.966 409.320 C 490.336 366.569, 502.083 332.011, 525.875 291.917 L 528.001 288.333 522.518 284.557 C 509.332 275.475, 498.592 259.973, 495.932 246.184 C 493.606 234.122, 496.679 216.309, 503.268 203.671 C 505.038 200.277, 506.639 197.162, 506.826 196.750 C 507.468 195.337, 498.493 196.147, 482 198.991 M 528.184 290.689 C 526.188 294.486, 520.076 314.980, 517.653 326 C 512.367 350.038, 511.519 358.608, 511.519 388 C 511.519 417.397, 512.380 426.094, 517.645 449.897 C 526.781 491.197, 545.040 529.114, 572.831 564.500 C 578.937 572.274, 604.575 598.220, 612.750 604.898 L 618 609.186 618 600.553 L 618 591.920 604.197 578.210 C 588.986 563.101, 580.655 553.085, 569.505 536.500 C 561.206 524.156, 550.084 503.288, 544.189 489 C 520.484 431.546, 518.149 362.025, 537.985 304.241 C 539.635 299.434, 540.989 295.026, 540.993 294.448 C 540.997 293.869, 538.650 292.519, 535.778 291.448 C 532.906 290.376, 530.236 289.360, 529.846 289.189 C 529.455 289.018, 528.707 289.693, 528.184 290.689" stroke="none" fill="#fec50c" fill-rule="evenodd"/><path d="M 550.793 179.550 C 534.837 183.419, 520.038 197.574, 514.933 213.850 C 512.459 221.737, 512.037 233.952, 513.961 242 C 520 267.265, 545.729 284.924, 571.111 281.225 C 609.143 275.682, 628.666 233.205, 607.990 200.984 C 601.674 191.142, 589.720 182.508, 578.356 179.582 C 570.947 177.675, 558.588 177.660, 550.793 179.550 M 482 198.991 C 369.826 218.331, 275.565 283.720, 217.084 382.762 C 191.583 425.951, 174.506 477.371, 168.350 529.500 C 165.877 550.447, 165.864 593.797, 168.324 614.388 C 176.329 681.392, 199.537 741.438, 237.631 793.711 C 253.994 816.165, 256.325 818.350, 277.981 831.541 C 289.126 838.329, 309.976 849.358, 310.560 848.773 C 310.812 848.522, 308.426 846.057, 305.259 843.296 C 296.038 835.258, 278.406 817.349, 269.551 807.027 C 222.438 752.106, 193.267 684.816, 184.789 611.500 C 183.119 597.059, 183.122 547.902, 184.793 533.500 C 199.124 410.039, 273.430 303.907, 384.500 248.255 C 415.624 232.660, 461.697 217.937, 487 215.500 L 493.500 214.874 485.500 217.808 C 384.174 254.968, 304.346 331.583, 263.610 430.772 C 228.392 516.522, 226.056 612.537, 257.048 700.500 C 276.616 756.040, 312.704 810.976, 355.530 850.420 C 369.276 863.080, 382.088 873.595, 384.710 874.367 C 387.291 875.128, 408.524 878.752, 415 879.537 C 421.504 880.325, 421.600 880.445, 408.500 871.510 C 376.296 849.546, 342.018 815.994, 319.296 784.194 C 284.477 735.463, 262.289 678.230, 254.910 618.114 C 248.341 564.596, 254.025 510.126, 271.503 459.100 C 290.042 404.976, 318.918 358.894, 359.935 317.975 C 396.934 281.064, 438.623 253.898, 486 235.828 C 490.184 234.232, 487.252 236.437, 475.448 243.766 C 429.173 272.495, 387.108 315.275, 358.208 363 C 329.630 410.193, 312.735 460.427, 306.917 515.500 C 305.418 529.688, 305.418 573.312, 306.917 587.500 C 312.936 644.479, 331.668 698.784, 361.667 746.221 C 393.445 796.472, 439.858 840.433, 491.650 869.336 C 498.543 873.183, 502.913 875, 505.269 875 C 508.640 875, 524.730 872.481, 528.250 871.402 C 530.148 870.820, 530.668 869, 528.936 869 C 527.154 869, 502.346 856.247, 491.603 849.808 C 440.327 819.078, 396.935 774.977, 368.168 724.356 C 317.599 635.373, 308.301 531.764, 342.201 435 C 362.115 378.156, 400.068 323.953, 447.500 284.615 C 459.134 274.967, 490.324 253, 492.390 253 C 492.835 253, 489.442 256.014, 484.850 259.698 C 474.177 268.260, 452.038 289.884, 442.052 301.500 C 402.135 347.935, 375.279 405.735, 365.551 466.144 C 359.584 503.202, 359.588 535.741, 365.565 573 C 383.891 687.237, 461.165 784.288, 569.063 828.581 C 583.567 834.534, 596.701 839, 599.710 839 C 602.281 839, 618.079 831.410, 619.208 829.632 C 620.274 827.954, 619.220 827.392, 610.500 824.990 C 532.695 803.555, 465.823 752.744, 422.969 682.500 C 417.419 673.403, 406.155 650.871, 401.595 639.747 C 379.801 586.577, 372.857 525.850, 382.013 468.500 C 393.562 396.157, 430.212 329.715, 485.255 281.333 C 496.533 271.420, 500.596 268.462, 496.356 273.250 C 461.595 312.512, 440.028 351.226, 426.585 398.500 C 413.815 443.406, 411.966 496.731, 421.609 542 C 437.939 618.656, 480.652 683.850, 544.400 729.417 C 559.368 740.117, 583.678 754.027, 597 759.515 C 606.620 763.477, 617.507 767.754, 617.660 767.630 C 617.748 767.559, 617.956 763.527, 618.122 758.670 L 618.423 749.840 609.462 746.073 C 567.265 728.331, 529.776 700.423, 499.402 664.141 C 443.426 597.276, 420.948 510.169, 437.603 424.646 C 445.522 383.982, 461.924 346.324, 486.836 311.608 C 492.751 303.365, 510.620 282, 511.598 282 C 511.909 282, 511.280 283.462, 510.200 285.250 C 451.591 382.268, 454.244 501.604, 517.090 595.128 C 531.832 617.066, 555.224 642.450, 575.702 658.731 C 585.648 666.638, 603.698 678.973, 613.250 684.390 L 618 687.084 618 679.624 C 618 675.521, 618.254 671.501, 618.565 670.691 C 618.964 669.651, 615.376 666.723, 606.315 660.697 C 588.656 648.952, 578.610 640.732, 563.985 626.057 C 522.877 584.811, 497.522 534.943, 487.944 476.500 C 485.223 459.898, 484.233 426.271, 485.966 409.320 C 490.336 366.569, 502.083 332.011, 525.875 291.917 L 528.001 288.333 522.518 284.557 C 509.332 275.475, 498.592 259.973, 495.932 246.184 C 493.606 234.122, 496.679 216.309, 503.268 203.671 C 505.038 200.277, 506.639 197.162, 506.826 196.750 C 507.468 195.337, 498.493 196.147, 482 198.991 M 528.184 290.689 C 526.188 294.486, 520.076 314.980, 517.653 326 C 512.367 350.038, 511.519 358.608, 511.519 388 C 511.519 417.397, 512.380 426.094, 517.645 449.897 C 526.781 491.197, 545.040 529.114, 572.831 564.500 C 578.937 572.274, 604.575 598.220, 612.750 604.898 L 618 609.186 618 600.553 L 618 591.920 604.197 578.210 C 588.986 563.101, 580.655 553.085, 569.505 536.500 C 561.206 524.156, 550.084 503.288, 544.189 489 C 520.484 431.546, 518.149 362.025, 537.985 304.241 C 539.635 299.434, 540.989 295.026, 540.993 294.448 C 540.997 293.869, 538.650 292.519, 535.778 291.448 C 532.906 290.376, 530.236 289.360, 529.846 289.189 C 529.455 289.018, 528.707 289.693, 528.184 290.689" stroke="none" fill="#fec50c" fill-rule="evenodd"/><path d="M 537.784 2.738 C 540.689 2.941, 545.189 2.939, 547.784 2.734 C 550.378 2.528, 548 2.363, 542.500 2.365 C 537 2.368, 534.878 2.536, 537.784 2.738 M 567.750 2.732 C 570.087 2.943, 573.913 2.943, 576.250 2.732 C 578.587 2.522, 576.675 2.349, 572 2.349 C 567.325 2.349, 565.413 2.522, 567.750 2.732 M 551.355 64.500 C 551.352 69.450, 551.521 71.601, 551.731 69.280 C 551.940 66.959, 551.943 62.909, 551.736 60.280 C 551.530 57.651, 551.358 59.550, 551.355 64.500 M 580.336 64 C 580.336 68.125, 580.513 69.813, 580.728 67.750 C 580.944 65.688, 580.944 62.313, 580.728 60.250 C 580.513 58.188, 580.336 59.875, 580.336 64 M 563.349 70 C 563.349 74.675, 563.522 76.587, 563.732 74.250 C 563.943 71.912, 563.943 68.087, 563.732 65.750 C 563.522 63.412, 563.349 65.325, 563.349 70 M 187.107 216.250 C 187.348 216.387, 190.236 218.975, 193.523 222 L 199.500 227.500 194.034 221.750 C 191.028 218.588, 188.140 216, 187.617 216 C 187.095 216, 186.865 216.113, 187.107 216.250 M 210.460 234.045 C 208.635 236.061, 208.699 236.176, 215.044 242.295 L 221.478 248.500 215.554 242.284 C 209.728 236.171, 209.660 236.033, 211.470 234.034 C 212.482 232.915, 213.085 232, 212.810 232 C 212.535 232, 211.477 232.920, 210.460 234.045 M 757.728 292.722 C 759.503 292.943, 762.653 292.946, 764.728 292.730 C 766.802 292.513, 765.350 292.333, 761.500 292.328 C 757.650 292.324, 755.952 292.501, 757.728 292.722 M 554.200 319.200 C 550.705 322.695, 549.099 319.304, 610.006 437 C 617.548 451.575, 629.886 475.523, 637.422 490.217 L 651.125 516.934 650.937 689.217 C 650.833 783.973, 651.079 862.288, 651.481 863.250 C 652.493 865.667, 655.500 865.440, 658.084 862.750 C 669.111 851.273, 689.484 806.355, 729.752 704.738 C 734.496 692.769, 738.696 683.319, 739.088 683.738 C 739.479 684.157, 743.183 693.950, 747.320 705.500 C 764.670 753.944, 783.614 803.812, 793.475 827 C 807.317 859.549, 815.474 870.311, 820.495 862.648 C 822.980 858.856, 823.842 845.990, 824.458 803.500 C 824.778 781.500, 825.683 736.500, 826.470 703.500 C 827.257 670.500, 828.163 626.625, 828.483 606 C 829.015 571.722, 829.522 560, 830.473 560 C 830.665 560, 834.575 561.607, 839.161 563.571 C 868.292 576.045, 904.506 584.322, 913.504 580.563 C 917.520 578.885, 918.551 576.036, 917.614 569.202 C 914.609 547.276, 879.155 507.539, 825.687 466.170 L 813.875 457.030 808.723 459.640 C 790.410 468.920, 769.569 472.573, 749.383 470.041 C 704.086 464.358, 667.892 429.750, 660.219 384.783 L 658.513 374.783 652.506 371.754 C 649.203 370.088, 630.075 358.791, 610 346.649 C 561.570 317.356, 557.866 315.534, 554.200 319.200 M 1044.079 424.986 C 1044.036 425.803, 1038.494 431.990, 1031.765 438.736 C 1025.036 445.481, 1019.973 450.936, 1020.515 450.859 C 1022.537 450.569, 1045.219 426.162, 1044.693 424.842 C 1044.279 423.805, 1044.140 423.837, 1044.079 424.986 M 1023.367 431.700 C 1023.752 432.086, 1018.990 437.598, 1012.784 443.950 L 1001.500 455.500 1013.197 444.069 C 1023.368 434.129, 1025.781 431, 1023.274 431 C 1022.940 431, 1022.982 431.315, 1023.367 431.700 M 1115.336 534 C 1115.336 538.125, 1115.513 539.813, 1115.728 537.750 C 1115.944 535.688, 1115.944 532.313, 1115.728 530.250 C 1115.513 528.188, 1115.336 529.875, 1115.336 534 M 1115.328 588.500 C 1115.333 592.350, 1115.513 593.802, 1115.730 591.728 C 1115.946 589.653, 1115.943 586.503, 1115.722 584.728 C 1115.501 582.952, 1115.324 584.650, 1115.328 588.500 M 882.765 902.428 L 886.500 905.857 883.523 909.178 L 880.546 912.500 883.986 909.268 L 887.426 906.035 884.017 902.518 C 882.142 900.583, 880.253 899, 879.819 899 C 879.384 899, 880.710 900.543, 882.765 902.428 M 188.885 907.176 C 191.805 910.289, 193.062 912.395, 192.647 913.478 C 192.283 914.426, 192.435 914.849, 193.011 914.493 C 194.922 913.312, 193.955 911.374, 189.250 906.958 L 184.500 902.500 188.885 907.176 M 530.409 1057.500 C 530.408 1066.850, 530.558 1070.810, 530.743 1066.299 C 530.928 1061.789, 530.929 1054.139, 530.745 1049.299 C 530.562 1044.460, 530.410 1048.150, 530.409 1057.500 M 542.175 1058.250 C 542.352 1070.684, 542.742 1069.204, 543.231 1054.248 C 543.379 1049.709, 543.163 1045.996, 542.750 1045.998 C 542.337 1045.999, 542.079 1051.513, 542.175 1058.250" stroke="none" fill="#33b097" fill-rule="evenodd"/><path d="M 542.500 2.683 C 523.590 3.256, 487.488 6.053, 479 7.602 C 474.325 8.456, 467.350 9.621, 463.500 10.192 C 452.792 11.779, 425.789 17.641, 413.500 21.047 C 407.450 22.723, 400.250 24.695, 397.500 25.427 C 390.489 27.295, 361.710 37.057, 360.500 37.978 C 359.950 38.397, 357.700 39.301, 355.500 39.988 C 344.130 43.538, 309.535 59.489, 290.500 69.959 C 264.754 84.120, 223.302 111.489, 212.437 121.500 C 211.840 122.050, 209.898 123.625, 208.120 125 C 206.343 126.375, 203.901 128.327, 202.694 129.337 C 201.487 130.347, 198.261 133.047, 195.525 135.337 C 173.151 154.058, 143.970 183.869, 123.906 208.500 C 108.519 227.391, 89.509 254.399, 79.915 271 C 78.167 274.025, 75.710 278.075, 74.456 280 C 68.730 288.787, 52.774 320.462, 43.104 342.239 C 41.947 344.846, 41 347.195, 41 347.459 C 41 347.724, 39.875 350.400, 38.500 353.406 C 37.125 356.412, 36 359.491, 36 360.248 C 36 361.005, 35.157 363.396, 34.128 365.562 C 33.098 367.728, 31.685 371.300, 30.989 373.500 C 30.293 375.700, 29.335 378.400, 28.861 379.500 C 26.947 383.942, 21.036 403.642, 21.018 405.636 C 21.008 406.810, 20.341 409.041, 19.537 410.592 C 18.732 412.143, 17.340 416.807, 16.444 420.956 C 15.548 425.105, 14.370 430.300, 13.827 432.500 C 8.604 453.635, 4.595 477.245, 1.517 505 C -0.555 523.681, -0.585 597.863, 1.473 617 C 3.888 639.474, 9.605 674.201, 12.914 686.500 C 13.950 690.350, 15.122 695.525, 15.520 698 C 15.917 700.475, 17.313 705.479, 18.621 709.121 C 19.930 712.763, 21 716.374, 21 717.147 C 21 718.556, 30.748 748.238, 34.910 759.500 C 49.766 799.705, 75.634 847.969, 102.312 885.255 C 111.932 898.699, 127.883 919.308, 130.367 921.500 C 130.990 922.050, 134.193 925.650, 137.486 929.500 C 140.778 933.350, 143.703 936.725, 143.986 937 C 144.268 937.275, 148.550 941.773, 153.500 946.996 C 164.497 958.600, 180.539 973.850, 194.271 985.755 C 202.963 993.290, 228.396 1013.127, 235.662 1018.038 C 262.346 1036.075, 271.533 1041.769, 292.742 1053.411 C 324.984 1071.111, 363.597 1086.977, 400 1097.483 C 405.225 1098.991, 410.625 1100.619, 412 1101.100 C 419.871 1103.853, 460.787 1112.081, 481.500 1115.075 C 510.999 1119.341, 559.735 1121.106, 592.482 1119.096 C 621.194 1117.333, 651.704 1113.113, 676 1107.543 C 681.775 1106.219, 688.975 1104.602, 692 1103.950 C 705.630 1101.013, 740.893 1089.890, 759.500 1082.659 C 775.599 1076.402, 812.840 1059.605, 816.500 1056.949 C 817.050 1056.550, 821.020 1054.356, 825.323 1052.074 C 844.059 1042.138, 873.894 1022.994, 892 1009.290 C 905.891 998.776, 909.592 995.811, 921.642 985.542 C 956.292 956.014, 982.607 926.990, 1016.879 880.500 C 1034.335 856.822, 1061.795 806.447, 1074.389 775 C 1077.583 767.025, 1081.277 757.969, 1082.598 754.875 C 1083.919 751.781, 1085 748.676, 1085 747.975 C 1085 747.274, 1086.317 743.055, 1087.927 738.600 C 1092.193 726.792, 1097.986 706.838, 1100.873 694 C 1101.430 691.525, 1102.750 685.900, 1103.807 681.500 C 1104.863 677.100, 1106.266 670.350, 1106.924 666.500 C 1107.582 662.650, 1108.315 658.600, 1108.553 657.500 C 1108.791 656.400, 1110.126 647.400, 1111.519 637.500 C 1117.647 593.941, 1117.688 529.451, 1111.616 485.500 C 1108.674 464.206, 1108.401 462.563, 1107.042 458.007 C 1106.469 456.085, 1106 453.097, 1106 451.367 C 1106 449.637, 1104.844 444.009, 1103.431 438.861 C 1102.017 433.712, 1100.479 427.250, 1100.012 424.500 C 1099.544 421.750, 1097.521 414.325, 1095.514 408 C 1093.508 401.675, 1091.466 394.621, 1090.977 392.325 C 1090.488 390.029, 1088.943 385.430, 1087.544 382.105 C 1086.145 378.780, 1085 375.465, 1085 374.738 C 1085 374.011, 1083.144 368.935, 1080.876 363.458 C 1078.607 357.981, 1075.668 350.584, 1074.345 347.020 C 1073.022 343.456, 1071.503 340.103, 1070.970 339.570 C 1070.436 339.036, 1070 338.011, 1070 337.291 C 1070 334.414, 1049.033 293.191, 1038.838 276.022 C 1028.955 259.380, 1016.461 240.673, 1006.500 227.604 C 1003.200 223.274, 999.825 218.763, 999 217.579 C 998.175 216.394, 996.600 214.461, 995.500 213.283 C 994.400 212.104, 992.375 209.685, 991 207.906 C 979.435 192.944, 953.839 165.752, 935.121 148.542 C 918.994 133.714, 885.574 107, 883.151 107 C 882.609 107, 882.017 106.615, 881.833 106.143 C 881.650 105.672, 878.440 103.202, 874.701 100.653 C 870.962 98.105, 866.912 95.326, 865.701 94.478 C 860.643 90.937, 849.326 83.684, 845.714 81.668 C 840.346 78.673, 837.454 77.008, 830.500 72.911 C 819.896 66.662, 777.244 46.027, 774.812 45.968 C 774.090 45.951, 772.608 45.262, 771.517 44.438 C 770.427 43.614, 767.502 42.305, 765.017 41.530 C 762.533 40.755, 756.225 38.498, 751 36.514 C 745.775 34.531, 736.550 31.308, 730.500 29.352 C 709.364 22.518, 710.871 22.924, 673.847 14.094 C 669.087 12.959, 660.779 11.538, 655.384 10.937 C 649.989 10.335, 644.883 9.477, 644.037 9.029 C 637.978 5.824, 572.969 1.761, 542.500 2.683 M 551.667 55.667 C 551.300 56.033, 551 64.381, 551 74.216 C 551 94.038, 551.344 95.461, 557.422 100.797 C 565.282 107.698, 577.762 107.660, 585.676 100.711 C 587.668 98.962, 589.869 96.164, 590.567 94.493 C 591.311 92.713, 592.137 84.115, 592.561 73.728 L 593.286 56 586.727 56 L 580.169 56 579.834 72.897 C 579.444 92.609, 578.890 94, 571.418 94 C 568.019 94, 566.731 93.474, 565.121 91.426 C 563.209 88.996, 563.130 87.908, 563.704 71.926 L 564.312 55 558.323 55 C 555.029 55, 552.033 55.300, 551.667 55.667 M 510 57.606 C 503.675 58.262, 498.387 58.843, 498.250 58.899 C 498.113 58.955, 498 61.250, 498 64 L 498 69 505 69 C 511.585 69, 512.002 69.133, 512.026 71.250 C 512.040 72.487, 512.478 77.882, 512.999 83.238 C 514.001 93.539, 513.756 95.496, 511.350 96.419 C 508.935 97.346, 506.311 95.306, 505.647 91.985 C 505.034 88.920, 504.991 88.901, 499.265 89.200 L 493.500 89.500 493.203 93.032 C 492.638 99.740, 499.500 106.851, 507.398 107.741 C 518.246 108.964, 526 102.351, 526 91.875 C 526 84.130, 523.152 57.715, 522.239 56.996 C 521.833 56.676, 516.325 56.951, 510 57.606 M 621.536 63.720 C 621.151 66.349, 619.518 75.925, 617.907 85 C 616.296 94.075, 614.744 102.928, 614.458 104.673 C 613.942 107.821, 613.982 107.854, 619.576 109.016 C 622.677 109.660, 625.555 109.807, 625.973 109.343 C 626.390 108.879, 627.289 104.900, 627.971 100.500 C 628.653 96.100, 629.376 92.225, 629.578 91.890 C 629.961 91.253, 644.925 93.592, 645.751 94.418 C 646.011 94.678, 645.645 98.778, 644.938 103.529 C 643.890 110.573, 643.891 112.314, 644.941 112.964 C 646.232 113.761, 655.093 115.240, 655.592 114.741 C 655.934 114.399, 662.844 73.444, 663.217 69.545 C 663.487 66.726, 663.251 66.534, 658.052 65.359 C 655.055 64.681, 652.309 64.309, 651.948 64.532 C 651.588 64.755, 650.730 69.053, 650.043 74.084 L 648.793 83.230 643.646 82.580 C 632.458 81.167, 631.997 80.991, 632.037 78.139 C 632.057 76.687, 632.664 72.447, 633.386 68.716 C 634.108 64.985, 634.426 61.763, 634.092 61.557 C 633.758 61.350, 631.688 60.876, 629.492 60.503 C 627.297 60.131, 624.766 59.626, 623.868 59.383 C 622.587 59.035, 622.086 59.967, 621.536 63.720 M 458.500 64.341 C 456.300 65.014, 454.500 66, 454.500 66.532 C 454.500 67.064, 456.023 74.316, 457.884 82.646 C 459.769 91.083, 460.998 98.870, 460.658 100.225 C 459.946 103.064, 456.276 105, 451.608 105 C 445.984 105, 445.881 104.750, 439.500 75.696 C 438.799 72.504, 437.998 69.665, 437.720 69.387 C 437.442 69.109, 434.665 69.623, 431.547 70.529 C 425.027 72.425, 425.254 70.145, 429.657 89.500 C 433.167 104.931, 434.575 108.383, 438.981 112.363 C 449.309 121.695, 469.358 115.647, 472.979 102.108 C 474.188 97.586, 473.534 93.380, 468.059 70.500 C 466.188 62.678, 465.463 62.211, 458.500 64.341 M 392.500 82.646 C 387.550 84.533, 379.675 87.458, 375 89.146 C 370.325 90.835, 365.727 92.626, 364.782 93.126 C 362.995 94.073, 362.952 93.783, 366.045 101.684 L 366.900 103.868 373.500 101.317 C 377.130 99.915, 380.316 98.982, 380.579 99.246 C 380.842 99.509, 383.529 106.424, 386.549 114.612 C 389.569 122.800, 392.593 130.698, 393.270 132.162 L 394.500 134.823 399.750 132.842 C 402.890 131.657, 405 130.253, 405 129.351 C 405 128.520, 403.919 125.064, 402.597 121.671 C 398.136 110.216, 393 95.959, 393 95.030 C 393 94.523, 395.714 93.118, 399.031 91.909 C 402.348 90.699, 405.264 89.381, 405.513 88.980 C 406.098 88.032, 403.016 78.966, 402.156 79.108 C 401.795 79.168, 397.450 80.760, 392.500 82.646 M 722.321 84.750 C 721.982 85.713, 721.064 88.075, 720.280 90 C 716.027 100.451, 706 127.113, 706 127.972 C 706 128.909, 709.882 130.876, 714.836 132.448 C 716.590 133.005, 717.194 132.602, 718.032 130.317 C 720.521 123.532, 724.350 115.001, 724.900 115.015 C 727.343 115.078, 728.328 117.740, 729.524 127.515 C 730.332 134.118, 731.357 138.611, 732.171 139.128 C 734.134 140.373, 743.066 143.268, 743.526 142.808 C 743.744 142.590, 742.985 136.210, 741.840 128.630 L 739.758 114.848 743.129 111.966 C 744.983 110.381, 749.526 106.703, 753.225 103.792 C 756.923 100.882, 759.818 98.072, 759.658 97.550 C 759.498 97.027, 756.872 95.703, 753.822 94.606 L 748.278 92.613 740.465 99.306 C 736.167 102.988, 732.167 105.993, 731.575 105.985 C 728.186 105.936, 728.082 104.332, 730.990 96.956 C 732.608 92.855, 733.947 88.922, 733.966 88.214 C 733.997 87.049, 726.170 83, 723.886 83 C 723.364 83, 722.660 83.787, 722.321 84.750 M 772.278 130.173 C 766.106 141.783, 761.285 151.652, 761.564 152.104 C 762.148 153.049, 787.103 166.500, 788.272 166.500 C 788.697 166.500, 790.173 164.607, 791.553 162.293 L 794.062 158.087 791.781 156.690 C 790.526 155.921, 786.800 153.822, 783.500 152.023 C 780.200 150.225, 777.386 148.657, 777.246 148.539 C 777.029 148.356, 779.841 142.101, 780.553 141.185 C 780.687 141.011, 783.530 142.249, 786.870 143.935 C 790.210 145.621, 793.322 147, 793.786 147 C 794.250 147, 795.489 145.313, 796.539 143.250 C 797.589 141.188, 798.584 139.240, 798.750 138.923 C 798.916 138.606, 796.677 137.076, 793.776 135.524 C 785.792 131.253, 785.860 131.351, 788.177 127.425 L 790.211 123.977 797.479 127.988 C 801.476 130.195, 805.244 132, 805.853 132 C 806.461 132, 807.926 130.106, 809.107 127.790 L 811.254 123.581 808.957 122.040 C 805.544 119.751, 785.109 108.995, 784.246 109.033 C 783.836 109.050, 778.450 118.564, 772.278 130.173 M 307.482 120.654 C 305.292 122.114, 303.314 123.462, 303.088 123.650 C 302.388 124.229, 304.781 128.767, 311.018 138.690 C 314.308 143.925, 317 148.417, 317 148.672 C 317 148.927, 315.762 148.276, 314.250 147.224 C 312.738 146.172, 306.190 142.521, 299.701 139.110 L 287.902 132.909 282.441 136.034 L 276.981 139.158 279.240 142.861 C 280.483 144.898, 286.169 154.313, 291.877 163.782 C 297.584 173.252, 302.759 180.985, 303.377 180.967 C 305.447 180.906, 312.504 175.304, 312.192 173.970 C 311.894 172.696, 302.674 157.104, 299.201 152 L 297.500 149.500 300 151.233 C 301.375 152.186, 306.100 154.822, 310.500 157.091 C 314.900 159.361, 320.424 162.343, 322.776 163.719 C 327.539 166.505, 329.787 166.137, 335.416 161.649 L 338.307 159.344 328.019 142.422 C 314.322 119.891, 313.099 118, 312.218 118 C 311.803 118, 309.672 119.194, 307.482 120.654 M 825 151.742 C 819.775 159.254, 813.536 168.260, 811.136 171.756 C 806.106 179.085, 805.231 177.372, 818.760 186.687 C 826.042 191.701, 827.698 192.417, 832.760 192.742 C 839.677 193.186, 843.798 191.052, 846.330 185.717 C 848.227 181.719, 848.443 178.696, 847.020 176.038 C 846.211 174.525, 846.490 174.094, 848.624 173.558 C 852.893 172.487, 855.618 170.174, 857.482 166.040 C 860.653 159.008, 857.584 153.645, 845.458 145.027 C 840.673 141.627, 836.251 138.674, 835.629 138.465 C 835.008 138.256, 830.225 144.231, 825 151.742 M 837.071 156.637 C 834.468 159.947, 834.483 160.524, 837.223 162.443 C 840.326 164.617, 843.722 164.389, 845.045 161.917 C 845.940 160.244, 845.801 159.438, 844.341 157.824 C 840.913 154.036, 839.321 153.776, 837.071 156.637 M 239.287 167.266 C 236.970 169.045, 235.058 171.215, 235.037 172.090 C 235.005 173.456, 240.541 189.266, 249.347 212.958 C 250.667 216.510, 252.142 219.533, 252.624 219.676 C 253.106 219.819, 255.470 218.234, 257.879 216.153 L 262.257 212.370 260.116 207.530 C 258.939 204.869, 258.094 202.626, 258.238 202.547 C 258.382 202.468, 260.812 200.513, 263.639 198.202 C 266.465 195.891, 269.173 194, 269.657 194 C 270.140 194, 272.191 195.125, 274.215 196.500 C 276.238 197.875, 278.255 198.987, 278.697 198.970 C 279.139 198.954, 281.480 197.229, 283.900 195.137 L 288.300 191.333 275.900 183.516 C 269.080 179.217, 259.409 173.067, 254.409 169.850 C 249.409 166.632, 244.909 164.007, 244.409 164.016 C 243.909 164.025, 241.604 165.487, 239.287 167.266 M 825.989 172.250 C 823.270 176.710, 823.427 177.310, 827.988 179.873 L 831.976 182.115 834.527 179.564 C 836.582 177.509, 836.876 176.637, 836.041 175.076 C 835.050 173.226, 829.862 169, 828.581 169 C 828.245 169, 827.079 170.463, 825.989 172.250 M 868.580 194.097 L 852.784 212.195 856.595 216.097 C 858.691 218.244, 860.924 220, 861.557 220 C 862.190 220, 867.836 214.052, 874.104 206.781 C 880.372 199.511, 887.514 191.368, 889.975 188.686 L 894.451 183.811 890.264 179.905 C 887.961 177.757, 885.695 176, 885.227 176 C 884.759 176, 877.268 184.144, 868.580 194.097 M 248 178.303 C 248 178.956, 253.562 191.648, 254.023 192.047 C 254.311 192.296, 255.994 191.367, 257.764 189.982 L 260.982 187.463 254.491 182.756 C 250.921 180.167, 248 178.163, 248 178.303 M 550.793 179.550 C 534.837 183.419, 520.038 197.574, 514.933 213.850 C 512.459 221.737, 512.037 233.952, 513.961 242 C 520 267.265, 545.729 284.924, 571.111 281.225 C 609.143 275.682, 628.666 233.205, 607.990 200.984 C 601.674 191.142, 589.720 182.508, 578.356 179.582 C 570.947 177.675, 558.588 177.660, 550.793 179.550 M 202.157 200.559 L 198.143 205.119 199.580 209.959 C 200.371 212.621, 201.689 216.701, 202.509 219.025 C 206.167 229.394, 203.079 230.503, 194.426 221.927 L 188.018 215.576 184.009 219.491 C 181.804 221.644, 180 223.898, 180 224.500 C 180 225.102, 182.813 228.226, 186.250 231.443 C 189.688 234.659, 197.331 241.950, 203.235 247.645 C 209.139 253.340, 214.335 258, 214.782 258 C 215.229 258, 217.356 256.195, 219.510 253.990 L 223.426 249.979 216.494 242.994 C 210.233 236.684, 209.712 235.859, 211.113 234.459 C 212.513 233.058, 213.670 233.200, 223.075 235.926 L 233.488 238.944 238.238 234.266 C 240.850 231.693, 242.653 229.270, 242.244 228.883 C 241.835 228.495, 235.650 226.660, 228.500 224.804 L 215.500 221.430 213.812 216.465 C 212.883 213.734, 211.130 208.012, 209.916 203.750 C 208.702 199.488, 207.362 196, 206.939 196 C 206.516 196, 204.364 198.052, 202.157 200.559 M 482 198.991 C 369.826 218.331, 275.565 283.720, 217.084 382.762 C 191.583 425.951, 174.506 477.371, 168.350 529.500 C 165.877 550.447, 165.864 593.797, 168.324 614.388 C 176.329 681.392, 199.537 741.438, 237.631 793.711 C 253.994 816.165, 256.325 818.350, 277.981 831.541 C 289.126 838.329, 309.976 849.358, 310.560 848.773 C 310.812 848.522, 308.426 846.057, 305.259 843.296 C 296.038 835.258, 278.406 817.349, 269.551 807.027 C 222.438 752.106, 193.267 684.816, 184.789 611.500 C 183.119 597.059, 183.122 547.902, 184.793 533.500 C 199.124 410.039, 273.430 303.907, 384.500 248.255 C 415.624 232.660, 461.697 217.937, 487 215.500 L 493.500 214.874 485.500 217.808 C 384.174 254.968, 304.346 331.583, 263.610 430.772 C 228.392 516.522, 226.056 612.537, 257.048 700.500 C 276.616 756.040, 312.704 810.976, 355.530 850.420 C 369.276 863.080, 382.088 873.595, 384.710 874.367 C 387.291 875.128, 408.524 878.752, 415 879.537 C 421.504 880.325, 421.600 880.445, 408.500 871.510 C 376.296 849.546, 342.018 815.994, 319.296 784.194 C 284.477 735.463, 262.289 678.230, 254.910 618.114 C 248.341 564.596, 254.025 510.126, 271.503 459.100 C 290.042 404.976, 318.918 358.894, 359.935 317.975 C 396.934 281.064, 438.623 253.898, 486 235.828 C 490.184 234.232, 487.252 236.437, 475.448 243.766 C 429.173 272.495, 387.108 315.275, 358.208 363 C 329.630 410.193, 312.735 460.427, 306.917 515.500 C 305.418 529.688, 305.418 573.312, 306.917 587.500 C 312.936 644.479, 331.668 698.784, 361.667 746.221 C 393.445 796.472, 439.858 840.433, 491.650 869.336 C 498.543 873.183, 502.913 875, 505.269 875 C 508.640 875, 524.730 872.481, 528.250 871.402 C 530.148 870.820, 530.668 869, 528.936 869 C 527.154 869, 502.346 856.247, 491.603 849.808 C 440.327 819.078, 396.935 774.977, 368.168 724.356 C 317.599 635.373, 308.301 531.764, 342.201 435 C 362.115 378.156, 400.068 323.953, 447.500 284.615 C 459.134 274.967, 490.324 253, 492.390 253 C 492.835 253, 489.442 256.014, 484.850 259.698 C 474.177 268.260, 452.038 289.884, 442.052 301.500 C 402.135 347.935, 375.279 405.735, 365.551 466.144 C 359.584 503.202, 359.588 535.741, 365.565 573 C 383.891 687.237, 461.165 784.288, 569.063 828.581 C 583.567 834.534, 596.701 839, 599.710 839 C 602.281 839, 618.079 831.410, 619.208 829.632 C 620.274 827.954, 619.220 827.392, 610.500 824.990 C 532.695 803.555, 465.823 752.744, 422.969 682.500 C 417.419 673.403, 406.155 650.871, 401.595 639.747 C 379.801 586.577, 372.857 525.850, 382.013 468.500 C 393.562 396.157, 430.212 329.715, 485.255 281.333 C 496.533 271.420, 500.596 268.462, 496.356 273.250 C 461.595 312.512, 440.028 351.226, 426.585 398.500 C 413.815 443.406, 411.966 496.731, 421.609 542 C 437.939 618.656, 480.652 683.850, 544.400 729.417 C 559.368 740.117, 583.678 754.027, 597 759.515 C 606.620 763.477, 617.507 767.754, 617.660 767.630 C 617.748 767.559, 617.956 763.527, 618.122 758.670 L 618.423 749.840 609.462 746.073 C 567.265 728.331, 529.776 700.423, 499.402 664.141 C 443.426 597.276, 420.948 510.169, 437.603 424.646 C 445.522 383.982, 461.924 346.324, 486.836 311.608 C 492.751 303.365, 510.620 282, 511.598 282 C 511.909 282, 511.280 283.462, 510.200 285.250 C 451.591 382.268, 454.244 501.604, 517.090 595.128 C 531.832 617.066, 555.224 642.450, 575.702 658.731 C 585.648 666.638, 603.698 678.973, 613.250 684.390 L 618 687.084 618 679.624 C 618 675.521, 618.254 671.501, 618.565 670.691 C 618.964 669.651, 615.376 666.723, 606.315 660.697 C 588.656 648.952, 578.610 640.732, 563.985 626.057 C 522.877 584.811, 497.522 534.943, 487.944 476.500 C 485.223 459.898, 484.233 426.271, 485.966 409.320 C 490.336 366.569, 502.083 332.011, 525.875 291.917 L 528.001 288.333 522.518 284.557 C 509.332 275.475, 498.592 259.973, 495.932 246.184 C 493.606 234.122, 496.679 216.309, 503.268 203.671 C 505.038 200.277, 506.639 197.162, 506.826 196.750 C 507.468 195.337, 498.493 196.147, 482 198.991 M 910.500 215.674 C 905 218.168, 894.972 222.704, 888.215 225.756 C 881.459 228.807, 875.761 231.577, 875.555 231.911 C 875.348 232.246, 876.891 234.527, 878.983 236.980 L 882.787 241.441 887.732 239.126 L 892.677 236.810 897.727 242.104 L 902.777 247.398 900.139 252.165 L 897.500 256.932 901.798 261.216 C 905.889 265.294, 906.154 265.405, 907.298 263.524 C 910.750 257.848, 929.960 221.346, 929.979 220.430 C 930.010 218.847, 923.036 210.988, 921.672 211.071 C 921.027 211.109, 916 213.181, 910.500 215.674 M 908.753 228.376 C 905.592 230.094, 903.012 231.950, 903.020 232.500 C 903.036 233.583, 907.895 238.518, 908.323 237.885 C 913.115 230.789, 916.294 224.964, 915.285 225.126 C 914.853 225.196, 911.914 226.658, 908.753 228.376 M 947.500 254.943 C 943.990 256.375, 940.070 261.112, 939.388 264.745 C 938.842 267.657, 940.283 279.761, 941.621 283.500 C 942.365 285.580, 940.239 287.277, 937.691 286.637 C 935.130 285.995, 932.433 280.680, 931.785 275 C 931.461 272.161, 928.929 271.416, 923.238 272.483 L 919.738 273.140 920.313 277.992 C 921.035 284.091, 924.965 291.951, 928.982 295.331 C 935.596 300.897, 944.688 300.686, 950.148 294.841 C 953.877 290.850, 954.435 286.959, 952.566 277.997 C 950.626 268.699, 950.618 267.360, 952.500 266.638 C 956.055 265.274, 959.095 268.977, 960.418 276.286 C 961.093 280.013, 961.161 280.062, 964.802 279.448 C 971.635 278.297, 972.001 278.055, 971.990 274.683 C 971.977 270.498, 967.991 262.189, 964.376 258.814 C 959.628 254.379, 952.749 252.801, 947.500 254.943 M 152.247 258.347 C 151.191 259.531, 149.376 261.888, 148.214 263.583 L 146.101 266.667 153.301 277.109 C 157.260 282.852, 163.875 292.418, 168 298.367 L 175.500 309.183 179.247 304.842 C 181.308 302.454, 182.983 300.050, 182.969 299.500 C 182.956 298.950, 181.628 296.761, 180.019 294.635 L 177.094 290.769 181.244 284.885 C 183.526 281.648, 185.746 279, 186.177 279 C 186.607 279, 188.791 279.733, 191.029 280.628 C 194.938 282.192, 195.185 282.175, 197.299 280.188 C 200.910 276.795, 203.365 272.072, 201.811 271.510 C 201.090 271.249, 193.300 268.748, 184.500 265.951 C 175.700 263.154, 165.275 259.814, 161.333 258.529 L 154.167 256.194 152.247 258.347 M 165.727 276.085 L 170.453 282.170 172.721 279.335 C 173.969 277.776, 174.847 276.064, 174.672 275.532 C 174.379 274.639, 163.575 270, 161.787 270 C 161.355 270, 163.129 272.738, 165.727 276.085 M 528.184 290.689 C 526.188 294.486, 520.076 314.980, 517.653 326 C 512.367 350.038, 511.519 358.608, 511.519 388 C 511.519 417.397, 512.380 426.094, 517.645 449.897 C 526.781 491.197, 545.040 529.114, 572.831 564.500 C 578.937 572.274, 604.575 598.220, 612.750 604.898 L 618 609.186 618 600.553 L 618 591.920 604.197 578.210 C 588.986 563.101, 580.655 553.085, 569.505 536.500 C 561.206 524.156, 550.084 503.288, 544.189 489 C 520.484 431.546, 518.149 362.025, 537.985 304.241 C 539.635 299.434, 540.989 295.026, 540.993 294.448 C 540.997 293.869, 538.650 292.519, 535.778 291.448 C 532.906 290.376, 530.236 289.360, 529.846 289.189 C 529.455 289.018, 528.707 289.693, 528.184 290.689 M 750.831 292.956 C 720.273 298.554, 696.882 319.536, 688.945 348.468 C 686.627 356.919, 686.072 375.047, 687.888 383 C 691.606 399.282, 698.628 411.755, 710.220 422.670 C 724.478 436.095, 741.906 443, 761.528 443 C 796.720 443, 826.990 419.287, 835.103 385.363 C 838.214 372.357, 837.488 355.932, 833.265 343.739 C 829.437 332.687, 825.113 325.403, 817.500 317.181 C 807.014 305.856, 796.072 299.075, 781.868 295.098 C 773.342 292.711, 757.961 291.649, 750.831 292.956 M 121.898 307.281 C 119.694 308.760, 116.487 313.064, 112.772 319.531 C 109.622 325.014, 107.034 330.012, 107.022 330.639 C 107.010 331.265, 110.487 333.631, 114.750 335.896 C 119.013 338.162, 124.300 341.064, 126.500 342.345 C 128.700 343.626, 134.866 347.025, 140.202 349.898 L 149.905 355.121 152.452 350.094 C 153.854 347.329, 154.998 344.714, 154.996 344.283 C 154.994 343.852, 152.069 341.988, 148.496 340.141 C 141.874 336.716, 141.545 336.350, 142.607 333.582 C 143.103 332.289, 144.996 332, 152.968 332 L 162.721 332 165.919 326 L 169.117 320 157.667 320 L 146.217 320 145.542 317.311 C 143.021 307.265, 130.093 301.781, 121.898 307.281 M 970.324 311.887 C 957.027 314.435, 945.846 316.820, 945.477 317.190 C 944.619 318.047, 950.168 327.999, 951.500 327.993 C 952.050 327.991, 954.246 327.504, 956.381 326.911 C 960.946 325.644, 961.387 325.975, 965.540 333.779 L 968.349 339.058 964.572 342.926 L 960.795 346.794 963.492 351.397 C 964.976 353.928, 966.536 356.213, 966.958 356.474 C 967.381 356.736, 975.443 348.369, 984.873 337.881 L 1002.018 318.813 998.870 312.907 C 997.138 309.658, 995.447 307.058, 995.111 307.128 C 994.775 307.199, 983.621 309.340, 970.324 311.887 M 124.041 321.655 C 121.662 325.687, 121.574 325.531, 128.221 329.044 L 131.943 331.011 133.471 328.055 C 135.490 324.152, 135.401 321.673, 133.171 319.655 C 129.994 316.779, 126.461 317.553, 124.041 321.655 M 554.200 319.200 C 550.705 322.695, 549.099 319.304, 610.006 437 C 617.548 451.575, 629.886 475.523, 637.422 490.217 L 651.125 516.934 650.937 689.217 C 650.833 783.973, 651.079 862.288, 651.481 863.250 C 652.493 865.667, 655.500 865.440, 658.084 862.750 C 669.111 851.273, 689.484 806.355, 729.752 704.738 C 734.496 692.769, 738.696 683.319, 739.088 683.738 C 739.479 684.157, 743.183 693.950, 747.320 705.500 C 764.670 753.944, 783.614 803.812, 793.475 827 C 807.317 859.549, 815.474 870.311, 820.495 862.648 C 822.980 858.856, 823.842 845.990, 824.458 803.500 C 824.778 781.500, 825.683 736.500, 826.470 703.500 C 827.257 670.500, 828.163 626.625, 828.483 606 C 829.015 571.722, 829.522 560, 830.473 560 C 830.665 560, 834.575 561.607, 839.161 563.571 C 868.292 576.045, 904.506 584.322, 913.504 580.563 C 917.520 578.885, 918.551 576.036, 917.614 569.202 C 914.609 547.276, 879.155 507.539, 825.687 466.170 L 813.875 457.030 808.723 459.640 C 790.410 468.920, 769.569 472.573, 749.383 470.041 C 704.086 464.358, 667.892 429.750, 660.219 384.783 L 658.513 374.783 652.506 371.754 C 649.203 370.088, 630.075 358.791, 610 346.649 C 561.570 317.356, 557.866 315.534, 554.200 319.200 M 984.992 319.964 C 984.171 320.412, 980.913 321.350, 977.750 322.048 C 974.587 322.747, 972.010 323.809, 972.022 324.409 C 972.034 325.009, 972.912 326.625, 973.973 328 L 975.902 330.500 981.180 325.500 C 984.083 322.750, 986.655 320.387, 986.896 320.250 C 988.124 319.548, 986.265 319.269, 984.992 319.964 M 89.250 370.392 C 86.362 377.724, 84 384.203, 84 384.789 C 84 385.376, 86.362 386.766, 89.250 387.877 C 92.138 388.988, 102.150 393.019, 111.500 396.834 C 120.850 400.649, 128.804 403.485, 129.175 403.135 C 130.527 401.864, 141.038 374.871, 140.513 374.021 C 139.731 372.756, 133.142 370.732, 131.659 371.301 C 130.967 371.566, 129.124 375.095, 127.564 379.142 C 126.004 383.189, 124.398 386.868, 123.995 387.318 C 123.324 388.069, 116 385.650, 116 384.678 C 116 384.445, 116.852 382.285, 117.893 379.877 C 121.453 371.646, 121.441 371.503, 117.071 369.532 C 114.891 368.549, 112.484 367.984, 111.723 368.276 C 110.961 368.568, 109.338 371.551, 108.115 374.904 C 106.893 378.257, 105.579 380.981, 105.196 380.958 C 104.813 380.935, 103.076 380.148, 101.335 379.208 L 98.170 377.500 101.482 369.313 C 103.303 364.811, 104.502 360.833, 104.147 360.475 C 103.203 359.525, 96.947 356.995, 95.628 357.030 C 95.008 357.047, 92.138 363.060, 89.250 370.392 M 1001.500 366.063 C 994.900 366.477, 986.057 366.915, 981.849 367.037 C 977.641 367.159, 973.693 367.572, 973.076 367.953 C 972.294 368.436, 972.694 370.319, 974.393 374.163 L 976.833 379.678 982.166 379.247 L 987.500 378.815 989.750 384.697 C 990.987 387.932, 992 391.091, 992 391.717 C 992 392.342, 990.346 394.217, 988.325 395.883 L 984.651 398.912 986.002 403.007 C 986.745 405.259, 987.889 407.833, 988.543 408.728 C 989.993 410.710, 988.539 411.780, 1011.761 391.650 L 1028.892 376.801 1026.883 371.702 C 1025.777 368.898, 1024.650 366.242, 1024.377 365.802 C 1023.825 364.907, 1019.108 364.961, 1001.500 366.063 M 1004.500 376.740 C 1001.750 376.949, 999.138 377.477, 998.696 377.914 C 998.254 378.350, 998.653 380.301, 999.581 382.248 L 1001.270 385.789 1007.135 381.234 C 1010.361 378.729, 1013 376.526, 1013 376.340 C 1013 376.153, 1012.212 376.081, 1011.250 376.180 C 1010.288 376.279, 1007.250 376.531, 1004.500 376.740 M 74.682 418.384 C 70.274 422.793, 67 431.395, 67 438.570 C 67 452.369, 76.944 462.584, 91.517 463.753 C 102.032 464.597, 111.505 458.870, 115.565 449.213 C 117.075 445.622, 117.725 435.983, 116.583 434.134 C 116.275 433.635, 116.869 433.006, 117.903 432.736 C 119.200 432.397, 120.003 430.944, 120.491 428.055 C 120.880 425.750, 120.974 423.640, 120.699 423.365 C 119.347 422.013, 94.961 416.254, 94.404 417.155 C 94.065 417.704, 93.146 420.932, 92.364 424.327 C 91.581 427.722, 90.717 431.231, 90.443 432.124 C 90.064 433.359, 91.016 434.018, 94.415 434.874 C 100.278 436.351, 99.950 436.442, 101.150 433 C 103.353 426.679, 107.716 431.805, 106.459 439.240 C 104.558 450.493, 90.526 454.726, 82.321 446.521 C 79.411 443.611, 79 442.556, 79 438.001 C 79 432.227, 81.182 426.686, 84.322 424.487 C 86.373 423.051, 86.367 423.022, 83.383 419.335 C 81.733 417.296, 79.886 415.462, 79.279 415.260 C 78.672 415.057, 76.603 416.463, 74.682 418.384 M 1016.250 420.742 C 995.425 426.205, 995.001 426.368, 995.056 428.908 C 995.136 432.548, 997.398 438.537, 998.609 438.313 C 999.166 438.210, 1004.930 436.748, 1011.419 435.063 C 1017.907 433.378, 1023.498 432, 1023.842 432 C 1024.186 432, 1019.334 437.148, 1013.061 443.439 L 1001.654 454.878 1002.895 460.422 C 1003.577 463.471, 1004.468 466.171, 1004.874 466.422 C 1005.692 466.928, 1050.683 455.650, 1051.631 454.702 C 1052.408 453.925, 1050.059 444.155, 1048.927 443.455 C 1048.447 443.158, 1042.096 444.501, 1034.812 446.438 L 1021.570 449.961 1033.282 438.218 L 1044.994 426.476 1043.791 420.738 C 1042.699 415.534, 1042.350 415.008, 1040.044 415.084 C 1038.645 415.130, 1027.938 417.676, 1016.250 420.742 M 970.226 778.700 C 960.426 796.884, 958.998 799.685, 959.008 800.700 C 959.015 801.448, 966.253 806, 967.434 806 C 967.729 806, 969.334 803.300, 971 800 C 972.666 796.700, 974.508 794, 975.095 794 C 976.101 794, 984.049 798.097, 1000.876 807.289 L 1008.251 811.319 1010.091 808.909 C 1012.816 805.341, 1014.429 801.019, 1013.394 800.057 C 1012.902 799.599, 1006.425 795.969, 999 791.989 C 991.575 788.010, 984.487 784.123, 983.248 783.353 L 980.996 781.951 983.998 776.004 C 985.649 772.733, 987 769.678, 987 769.214 C 987 768.509, 985.245 767.435, 978.851 764.226 C 978.493 764.047, 974.612 770.560, 970.226 778.700 M 131.500 778.452 C 127.650 779.156, 117.567 780.913, 109.093 782.357 C 100.619 783.800, 93.456 785.211, 93.175 785.491 C 92.894 785.772, 93.845 788.139, 95.288 790.751 L 97.912 795.500 103.647 795.500 L 109.383 795.500 112.727 801.421 L 116.072 807.342 112.325 811.179 L 108.579 815.016 111.539 820.523 L 114.500 826.030 120.010 820.265 C 123.040 817.094, 131.060 808.557, 137.832 801.294 L 150.144 788.088 147.259 782.794 C 143.921 776.671, 142.849 776.375, 131.500 778.452 M 125.750 790.707 C 122.588 791.537, 120.010 792.730, 120.022 793.358 C 120.034 793.986, 120.918 795.625, 121.985 797 L 123.926 799.500 129.201 794.250 C 134.850 788.628, 134.611 788.382, 125.750 790.707 M 147.899 830.109 C 137.780 837.319, 129.118 843.574, 128.651 844.008 C 127.442 845.133, 128.597 847.963, 131.870 851.902 L 134.697 855.304 144.598 847.998 C 150.044 843.979, 155.265 840.036, 156.201 839.235 C 157.148 838.424, 154.880 844.662, 151.078 853.322 L 144.255 868.865 147.604 873.576 C 149.447 876.167, 151.140 878.473, 151.367 878.700 C 151.707 879.040, 187.434 853.607, 190.410 850.906 C 191.450 849.962, 186.657 842.189, 184.532 841.374 C 183.777 841.084, 178.173 844.470, 172.079 848.898 C 165.986 853.326, 161 856.601, 161 856.175 C 161 855.749, 161.418 854.973, 161.930 854.450 C 163.095 853.259, 174 828.011, 174 826.503 C 174 825.100, 168.087 817, 167.063 817 C 166.643 817, 158.019 822.899, 147.899 830.109 M 940.193 826.529 C 938.437 829.020, 937 831.517, 937 832.078 C 937 832.639, 940.725 838.139, 945.277 844.299 C 949.830 850.460, 956.447 859.438, 959.983 864.250 C 963.519 869.063, 966.881 872.999, 967.456 872.998 C 968.479 872.996, 974 865.017, 974 863.539 C 974 863.126, 972.661 861.097, 971.024 859.030 L 968.048 855.273 971.831 849.886 C 975.818 844.208, 976.911 843.789, 983.625 845.369 C 986.486 846.042, 987.015 845.745, 989.875 841.855 C 993.811 836.503, 993.792 835.407, 989.750 834.605 C 987.962 834.250, 982.225 832.668, 977 831.089 C 962.364 826.666, 945.617 821.988, 944.443 821.994 C 943.861 821.997, 941.948 824.038, 940.193 826.529 M 952.571 836.063 C 953.160 836.853, 955.357 839.644, 957.454 842.265 L 961.265 847.029 963.599 843.865 C 964.883 842.125, 965.718 840.353, 965.455 839.927 C 965.192 839.501, 962.619 838.378, 959.738 837.431 C 956.857 836.484, 953.825 835.465, 953 835.167 C 951.841 834.749, 951.743 834.952, 952.571 836.063 M 913.500 864.518 C 909.741 866.541, 907.318 868.789, 899.869 877.167 L 893.941 883.835 911.525 899.667 C 921.197 908.375, 929.690 915.632, 930.399 915.793 C 931.986 916.154, 945.917 900.103, 947.703 895.856 C 951.912 885.845, 944.828 874.955, 934.967 876.278 C 932.821 876.565, 931.105 876.508, 931.152 876.150 C 931.883 870.566, 926.502 864.120, 920.499 863.390 C 917.904 863.074, 915.447 863.470, 913.500 864.518 M 188.250 886.274 C 176.012 891.849, 166 896.902, 166 897.503 C 166 898.103, 167.745 900.298, 169.877 902.380 L 173.754 906.166 177.837 904.083 C 180.083 902.937, 182.501 902.046, 183.210 902.102 C 183.920 902.158, 186.508 904.441, 188.961 907.176 L 193.422 912.149 190.790 916.832 L 188.157 921.515 192.115 925.757 C 194.291 928.091, 196.412 930, 196.828 930 C 197.243 930, 198.789 927.638, 200.263 924.750 C 201.736 921.862, 206.340 913.200, 210.493 905.500 C 222.789 882.702, 221.883 885.914, 217.521 880.591 C 215.452 878.066, 213.026 876.031, 212.130 876.068 C 211.233 876.106, 200.488 880.698, 188.250 886.274 M 913.174 878.314 C 910.306 881.368, 910.428 882.457, 913.919 884.942 L 916.838 887.021 918.919 884.376 C 921.268 881.389, 921.566 878.966, 919.800 877.200 C 917.961 875.361, 915.572 875.763, 913.174 878.314 M 927.193 890.301 L 923.994 893.602 927.561 897.051 L 931.129 900.500 934.038 897 C 937.336 893.031, 937.698 890.840, 935.429 888.571 C 933.038 886.180, 930.714 886.669, 927.193 890.301 M 199.115 893.381 L 192.729 896.665 195.673 899.960 L 198.617 903.255 202.772 896.627 C 205.058 892.982, 206.606 890.022, 206.214 890.049 C 205.821 890.075, 202.627 891.575, 199.115 893.381 M 868.004 909.129 L 856.858 919.258 859.746 922.379 C 861.335 924.096, 867.779 931.328, 874.067 938.451 C 880.355 945.574, 886.436 952.420, 887.579 953.663 L 889.659 955.924 901.079 945.902 C 907.361 940.390, 912.626 935.333, 912.780 934.665 C 912.934 933.997, 911.505 931.943, 909.604 930.101 L 906.148 926.751 901.824 930.794 C 899.446 933.017, 896.233 935.829, 894.684 937.042 L 891.869 939.248 888.845 936.374 L 885.822 933.500 891.635 928.278 L 897.448 923.057 894.028 919.528 C 892.147 917.588, 890.109 916, 889.500 916 C 888.891 916, 886.842 917.612, 884.946 919.582 C 879.596 925.143, 878.654 925.376, 876.002 921.789 L 873.697 918.671 880.599 912.421 L 887.500 906.170 884.054 902.585 C 882.158 900.613, 880.280 899, 879.879 899 C 879.479 899, 874.135 903.558, 868.004 909.129 M 230.080 926.003 C 221.786 935.904, 215 944.370, 215 944.816 C 215 945.261, 216.238 946.745, 217.750 948.113 C 223.851 953.631, 223.230 953.763, 230.073 945.491 C 236.091 938.215, 236.421 937.978, 238.105 939.702 C 239.782 941.418, 239.752 941.980, 237.453 952 L 235.043 962.500 239.771 966.712 C 242.372 969.028, 244.829 970.940, 245.231 970.962 C 246.031 971.004, 245.957 971.299, 249.086 955.500 C 250.285 949.450, 251.780 943.942, 252.408 943.260 C 253.037 942.578, 258.413 940.255, 264.354 938.098 C 270.295 935.942, 275.458 933.875, 275.827 933.506 C 276.534 932.799, 268.140 925.081, 266.608 925.030 C 266.117 925.013, 261.688 926.592, 256.767 928.539 C 248.336 931.872, 244 932.315, 244 929.841 C 244 929.278, 246.501 925.821, 249.557 922.159 L 255.114 915.500 250.928 911.750 C 248.626 909.688, 246.387 908, 245.951 908 C 245.516 908, 238.374 916.101, 230.080 926.003 M 834.257 936.766 C 831.924 938.270, 830.011 940.118, 830.007 940.873 C 830.003 941.628, 831.947 945.003, 834.327 948.373 C 836.707 951.743, 838.944 954.998, 839.298 955.607 C 840.154 957.081, 826.116 966.784, 825.187 965.361 C 819.950 957.334, 815.326 951.057, 814.630 951.032 C 813.332 950.984, 805.079 956.375, 805.037 957.297 C 805.005 957.995, 825.007 987.854, 830.567 995.409 L 832.634 998.217 837.317 994.916 C 839.893 993.100, 842 991.196, 842 990.684 C 842 990.173, 840.053 986.997, 837.673 983.627 C 835.293 980.257, 833.036 976.970, 832.659 976.323 C 832.230 975.587, 834.611 973.375, 839.006 970.426 C 842.875 967.831, 846.217 965.885, 846.432 966.103 C 846.648 966.322, 848.957 969.650, 851.563 973.500 C 854.170 977.350, 856.460 980.688, 856.653 980.918 C 856.921 981.239, 862.304 977.793, 866.858 974.385 C 867.055 974.238, 863.413 968.579, 858.764 961.809 C 854.116 955.039, 847.927 946.013, 845.010 941.750 C 842.094 937.487, 839.436 934.007, 839.104 934.016 C 838.772 934.025, 836.591 935.262, 834.257 936.766 M 307.936 972.182 C 303.938 978.957, 298.448 988.222, 295.735 992.771 C 293.022 997.320, 291.023 1001.595, 291.292 1002.271 C 291.833 1003.626, 300.711 1008.687, 301.268 1007.957 C 301.655 1007.448, 306.072 999.983, 315.736 983.500 C 319.284 977.450, 323.068 971.058, 324.146 969.296 L 326.106 966.092 321.977 963.485 C 319.706 962.052, 317.253 960.651, 316.527 960.372 C 315.666 960.041, 312.675 964.154, 307.936 972.182 M 344.284 979.750 C 343.235 982.248, 339.769 989.946, 334.266 1002 C 328.097 1015.516, 326 1020.358, 326 1021.092 C 326 1021.919, 334.474 1026, 336.192 1026 C 336.708 1026, 338.718 1022.513, 340.659 1018.250 C 342.600 1013.987, 345.191 1008.341, 346.416 1005.703 L 348.644 1000.907 350.366 1016.703 C 351.889 1030.678, 352.342 1032.699, 354.294 1034.229 C 357.252 1036.548, 363.011 1038.424, 363.898 1037.358 C 364.290 1036.886, 367.678 1029.750, 371.427 1021.500 C 375.176 1013.250, 379.490 1003.800, 381.013 1000.500 C 382.537 997.200, 383.588 994.175, 383.350 993.778 C 382.884 993.001, 374.225 989, 373.009 989 C 372.604 989, 371.020 991.813, 369.488 995.250 C 367.957 998.688, 365.645 1003.834, 364.352 1006.686 C 363.058 1009.538, 361.971 1012.463, 361.937 1013.186 C 361.739 1017.288, 360.103 1008.833, 359.095 998.500 C 357.367 980.777, 357.653 981.538, 351.811 979.110 C 345.460 976.471, 345.668 976.453, 344.284 979.750 M 744.250 988.464 C 739.259 990.788, 739 991.096, 739 994.730 C 739 996.832, 739.432 1002.141, 739.960 1006.526 C 740.489 1010.912, 741.384 1020.498, 741.951 1027.830 C 742.517 1035.161, 743.221 1041.548, 743.514 1042.023 C 743.808 1042.498, 746.399 1041.793, 749.274 1040.458 L 754.500 1038.029 754.500 1032.416 L 754.500 1026.803 760.881 1024.171 L 767.263 1021.539 770.611 1025.413 L 773.960 1029.287 778.230 1027.634 C 785.449 1024.839, 785.653 1024.564, 782.914 1021.314 C 777.314 1014.668, 750.682 986.001, 750.117 986.010 C 749.777 986.015, 747.138 987.119, 744.250 988.464 M 750.468 1004 C 750.804 1005.925, 751.347 1009.413, 751.675 1011.750 C 752.003 1014.087, 752.594 1016, 752.987 1016 C 754.372 1016, 760 1013.797, 760 1013.255 C 760 1012.953, 758.313 1010.662, 756.250 1008.163 C 749.337 999.789, 749.789 1000.115, 750.468 1004 M 403.558 1003.250 C 403.349 1003.938, 401.512 1010.125, 399.475 1017 C 397.438 1023.875, 394.474 1033.754, 392.888 1038.952 C 391.303 1044.151, 390.341 1048.730, 390.752 1049.127 C 392.484 1050.798, 410.943 1055.312, 416.090 1055.322 C 428.523 1055.347, 437.692 1046.338, 439.559 1032.265 C 440.536 1024.899, 438.628 1019.533, 433.049 1013.954 C 428.722 1009.627, 427.089 1008.784, 416.797 1005.572 C 403.819 1001.520, 404.070 1001.564, 403.558 1003.250 M 700.249 1004.402 C 698.461 1005.062, 696.609 1006.029, 696.133 1006.551 C 695.379 1007.376, 708.910 1051.243, 710.367 1052.701 C 710.654 1052.987, 713.422 1052.424, 716.519 1051.450 C 720.757 1050.117, 722.033 1049.286, 721.679 1048.090 C 721.420 1047.215, 718.066 1036.825, 714.225 1025 C 706.647 1001.672, 706.847 1001.967, 700.249 1004.402 M 658.143 1015.493 C 646.365 1019.167, 642.212 1031.683, 650.141 1039.604 C 652.723 1042.183, 655.120 1043.332, 660.500 1044.567 C 670.774 1046.927, 672.191 1047.639, 671.818 1050.260 C 671.529 1052.299, 670.963 1052.498, 665.500 1052.474 C 662.200 1052.459, 658.688 1052.234, 657.695 1051.974 C 656.311 1051.610, 655.394 1052.637, 653.762 1056.379 C 651.726 1061.046, 651.711 1061.316, 653.427 1062.570 C 656.512 1064.826, 664.078 1065.933, 669.466 1064.916 C 683.549 1062.260, 689.603 1048.403, 680.611 1039.411 C 677.999 1036.799, 675.797 1035.839, 669.130 1034.407 C 664.594 1033.432, 660.127 1032.082, 659.204 1031.407 C 657.649 1030.270, 657.672 1030.020, 659.512 1027.987 C 661.189 1026.134, 662.273 1025.866, 666.498 1026.258 C 669.249 1026.514, 672.124 1026.898, 672.887 1027.112 C 674.215 1027.484, 674.691 1026.471, 676.367 1019.711 C 676.986 1017.211, 676.695 1016.770, 673.561 1015.461 C 669.290 1013.677, 663.930 1013.688, 658.143 1015.493 M 409.959 1026.239 C 408.251 1031.883, 406.454 1037.755, 405.965 1039.289 C 405.184 1041.740, 405.383 1042.195, 407.603 1043.039 C 408.993 1043.568, 412.091 1044, 414.488 1044 C 418.010 1044, 419.430 1043.417, 421.887 1040.959 C 424.881 1037.965, 426.983 1032.713, 426.994 1028.200 C 427.008 1022.716, 422.721 1018.292, 415.782 1016.629 C 413.094 1015.985, 413.032 1016.088, 409.959 1026.239 M 470.278 1023.549 C 461.498 1027.924, 457 1035.751, 457 1046.652 C 457 1058.235, 463.205 1066.825, 474.119 1070.349 C 480.675 1072.467, 485.269 1072.442, 491.500 1070.255 C 504.333 1065.751, 511.221 1050.381, 506.457 1036.879 C 501.728 1023.475, 483.732 1016.844, 470.278 1023.549 M 606.558 1024.631 C 600.540 1025.412, 595.383 1026.283, 595.099 1026.568 C 594.481 1027.186, 599.556 1073.890, 600.325 1074.658 C 601.140 1075.473, 630.108 1072.292, 631.124 1071.276 C 631.614 1070.786, 631.721 1068.241, 631.361 1065.619 L 630.708 1060.852 626.104 1061.392 C 623.572 1061.689, 619.138 1062.214, 616.250 1062.559 L 611 1063.188 610.850 1060.094 C 610.768 1058.392, 610.655 1056.438, 610.600 1055.750 C 610.534 1054.927, 612.867 1054.239, 617.432 1053.735 C 621.245 1053.314, 624.530 1052.804, 624.732 1052.601 C 624.934 1052.399, 624.797 1049.947, 624.426 1047.153 L 623.752 1042.072 619.126 1042.585 C 616.582 1042.867, 613.318 1043.278, 611.873 1043.499 C 609.527 1043.858, 609.183 1043.514, 608.660 1040.294 C 608.338 1038.311, 608.291 1036.338, 608.555 1035.911 C 608.819 1035.484, 612.575 1034.826, 616.901 1034.448 C 621.227 1034.071, 625.207 1033.478, 625.746 1033.131 C 626.302 1032.772, 626.460 1030.558, 626.112 1028 C 625.507 1023.550, 625.455 1023.498, 621.500 1023.356 C 619.300 1023.276, 612.576 1023.850, 606.558 1024.631 M 531.539 1026.937 C 531.138 1027.586, 530.558 1038.914, 530.252 1052.110 L 529.694 1076.103 536.082 1075.802 C 541.664 1075.538, 542.481 1075.248, 542.564 1073.500 C 542.615 1072.400, 542.780 1065.875, 542.929 1059 C 543.078 1052.125, 543.492 1047.404, 543.850 1048.508 C 544.207 1049.613, 547.767 1056.199, 551.760 1063.144 L 559.019 1075.772 564.624 1076.472 C 567.706 1076.857, 570.604 1076.796, 571.065 1076.335 C 571.525 1075.875, 571.972 1064.699, 572.058 1051.499 L 572.214 1027.500 566.107 1027.202 L 560 1026.905 559.941 1041.202 C 559.901 1050.951, 559.569 1055.023, 558.898 1054 C 558.357 1053.175, 554.736 1046.875, 550.852 1040 C 546.968 1033.125, 543.702 1027.402, 543.594 1027.282 C 543.486 1027.162, 540.894 1026.770, 537.833 1026.410 C 534.004 1025.960, 532.041 1026.125, 531.539 1026.937 M 478.686 1033.006 C 473.048 1034.719, 469.833 1039.620, 469.833 1046.500 C 469.833 1057.464, 479.781 1063.479, 488.810 1057.974 C 494.749 1054.353, 496.860 1044.563, 493.050 1038.314 C 490.087 1033.454, 484.277 1031.308, 478.686 1033.006" stroke="none" fill="#ffffff" fill-rule="evenodd"/></svg>